<?xml version="1.0" encoding="UTF-8"?>
<svg id="Layer_1" xmlns="http://www.w3.org/2000/svg" version="1.1" xmlns:xlink="http://www.w3.org/1999/xlink" viewBox="0 0 322.33 649.62">
  <!-- Generator: Adobe Illustrator 30.1.0, SVG Export Plug-In . SVG Version: 2.1.1 Build 136)  -->
  <defs>
    <style>
      .st0 {
        fill: #701425;
        filter: url(#drop-shadow-1);
      }

      .st1 {
        fill: #fff;
      }

      .st2 {
        fill: #285037;
      }

      .st3 {
        fill: #408058;
      }

      .st4 {
        fill: #b4203c;
      }

      .st5 {
        fill: #ccc;
      }
    </style>
    <filter id="drop-shadow-1" x="59.63" y="29.05" width="217.27" height="592.3" filterUnits="userSpaceOnUse">
      <feOffset dx="30" dy="17"/>
      <feGaussianBlur result="blur" stdDeviation="0"/>
      <feFlood flood-color="#497758" flood-opacity=".44"/>
      <feComposite in2="blur" operator="in"/>
      <feComposite in="SourceGraphic"/>
    </filter>
  </defs>
  <path class="st2" d="M231.33,558.42c-.78,3.65-2.25,6.92-4.5,10.03-13.88,19.16-36.11,22.3-53.96,24.83l-2.81.4-39.25-.85-.77-.13c-8.78-1.53-18.72-3.27-28.68-7.13-10.41-3.88-18.74-10.05-24.76-18.35-2.29-3.15-6.11-8.41-5.97-15.3l2.85-140.4,2.57-114.49c.07-2.93.39-5.79.97-8.48,1.05-4.92,2.91-9.47,5.7-13.9,4.08-6.49,9.56-12.18,13.95-16.76,2.78-2.89,5.4-5.61,6.58-7.41,1.98-3,3.67-7.64,4.9-13.41,1.01-4.76,1.67-10.19,1.85-15.29l1.31-37.24c.94-26.65,4.39-53.13,7.73-78.74.39-2.99.78-5.98,1.17-8.97-2.16-3.5-3.03-8.15-3.05-15.43,0-2.18.15-4.31.47-6.45-1.66-2.71-2.23-5.96-1.56-9.1.03-.13.06-.25.09-.38l2.8-11.6c1.65-6.81,7.35-11.89,14.51-12.92l14.18-2.05,50.03,1.07-.81,3.8c2.63,1.73,5.28,4.63,6.78,9.48l3.24,10.53c.7,2.25.81,5.23.28,7.75-.35,1.63-.97,3.09-1.86,4.36.33,2.56.42,5.22.25,7.96-.18,3.18-.5,5.77-.95,7.91-.6,2.82-1.47,5.04-2.76,6.91l4.41,64.58c1.21,17.7.99,35.05.57,51.17-.18,7.13-.74,28.83,5.35,38.35,1.6,2.49,4.2,5.43,6.96,8.55,4.92,5.56,10.5,11.85,14.16,19.61,2.88,6.1,4.21,12.24,4.08,18.75l-5.4,252.51c-.05,2.28-.27,4.31-.68,6.22Z"/>
  <path class="st2" d="M185.1,49.97l4.96,1.78c2.16.77,3.17,2.45,3.81,4.53l3.24,10.52c.22.72.25,2.65-.2,3.25-.5.67-1.83,1.19-3.04,1.66,1.29,3.62,1.72,7.5,1.49,11.54-.85,14.64-4.28,7.83-3.84,14.21l4.54,66.5c1.16,16.92.99,33.3.55,50.21-.34,13.1-.2,32.94,6.97,44.14,5.08,7.93,15.45,16.31,20.48,27,2.11,4.47,3.21,9.02,3.1,14.17l-5.4,252.5c-.09,4.02-.86,7.19-3.22,10.44-11.77,16.24-31.21,18.43-49.09,20.98l-37.63-.81c-9.21-1.61-18.07-3.22-26.81-6.61-8.07-2.99-15.01-7.78-20.1-14.78-1.78-2.45-4.09-5.63-4.02-9.07l2.85-140.4,2.57-114.47c.15-6.4,1.78-11.89,5.1-17.16,6.17-9.81,16.45-17.95,20.42-23.99,5.78-8.76,8.06-23.51,8.43-33.97l1.31-37.23c1.05-29.86,5.27-59.16,9.07-88.74.8-6.24-3.18.16-3.23-14.78-.02-3.67.58-6.94,1.64-10.37-1.73-.07-3.37-1.35-2.94-3.1l2.81-11.63c.69-2.87,3.13-4.77,6.02-5.19l13.34-1.93,36.79.79h0Z"/>
  <path class="st5" d="M231.33,558.42c-.78,3.65-2.25,6.92-4.5,10.03-13.88,19.16-36.11,22.3-53.96,24.83l-2.81.4-39.25-.85-.77-.13c-8.78-1.53-18.72-3.27-28.68-7.13-10.41-3.88-18.73-10.05-24.75-18.35-2.28-3.14-6.11-8.41-5.97-15.3l2.85-140.4,2.57-114.49c.07-2.93.39-5.79.97-8.48,1.05-4.92,2.91-9.47,5.7-13.9,4.08-6.49,9.56-12.18,13.96-16.76,2.78-2.89,5.4-5.61,6.58-7.41,1.98-3,3.67-7.64,4.9-13.41,1.01-4.76,1.67-10.19,1.85-15.29l1.31-37.24c.94-26.65,4.39-53.13,7.73-78.73.39-2.99.78-5.98,1.17-8.97-2.16-3.5-3.03-8.15-3.05-15.43,0-2.18.15-4.31.47-6.45-1.66-2.71-2.23-5.96-1.56-9.1.03-.13.06-.25.09-.38l2.8-11.6c1.65-6.81,7.35-11.88,14.51-12.92l14.18-2.05,50.03,1.07-.81,3.8c2.63,1.73,5.28,4.63,6.78,9.48l3.24,10.53c.7,2.25.81,5.23.28,7.75-.35,1.63-.97,3.09-1.86,4.36.33,2.56.42,5.22.25,7.95-.18,3.18-.5,5.77-.95,7.92-.6,2.82-1.47,5.04-2.76,6.91l4.41,64.58c1.21,17.7.99,35.05.57,51.17-.18,7.13-.74,28.83,5.35,38.34,1.6,2.49,4.2,5.44,6.97,8.55,4.92,5.56,10.5,11.85,14.15,19.6,2.88,6.11,4.21,12.24,4.08,18.75l-5.4,252.51c-.05,2.28-.27,4.31-.68,6.22Z"/>
  <path class="st0" d="M146.28,29.05l-15.03,2.18c-11.34,1.64-20.37,9.75-23.01,20.66l-2.79,11.57c-.06.23-.11.46-.16.69-.94,4.4-.55,8.89,1.06,13-.14,1.56-.2,3.13-.19,4.72.02,7.33.86,12.73,2.74,17.19-.23,1.76-.76,5.85-.76,5.85-3.37,25.84-6.85,52.57-7.81,79.7l-1.31,37.24c-.16,4.53-.74,9.33-1.63,13.52-1.37,6.43-2.97,9.2-3.44,9.9-.67,1.02-3.52,3.97-5.41,5.94-4.72,4.91-10.6,11.02-15.24,18.4-3.44,5.47-5.75,11.11-7.06,17.23-.71,3.32-1.11,6.81-1.19,10.39l-2.57,114.51-2.85,140.4c-.21,10.33,5.29,17.89,7.92,21.52,7.21,9.94,17.11,17.31,29.41,21.91,10.88,4.2,21.33,6.03,30.56,7.64l1.53.27,40.86.88,3.63-.52c18.73-2.65,44.39-6.28,60.82-28.96,3.11-4.28,5.15-8.84,6.23-13.91.54-2.54.83-5.2.9-8.13l5.4-252.53c.16-8.13-1.49-15.76-5.06-23.33-4.28-9.08-10.64-16.26-15.76-22.03-2.38-2.69-4.84-5.46-6.01-7.28-1.64-2.57-4.31-10.21-3.74-32.55.43-16.37.65-34.01-.59-52.14l-4.21-61.53c1.01-2.13,1.79-4.49,2.35-7.13s.94-5.75,1.16-9.45c.13-2.16.13-4.31,0-6.41.6-1.38,1.07-2.84,1.39-4.37h0c.91-4.27.72-8.98-.51-12.9l-3.24-10.54c-1.17-3.81-2.98-7.18-5.34-10.01l2.18-10.23-63.26-1.35Z"/>
  <path class="st1" d="M185.1,49.97l4.96,1.78c2.16.77,3.17,2.45,3.81,4.53l3.24,10.52c.22.72.25,2.65-.2,3.25-.5.67-1.83,1.19-3.04,1.66,1.29,3.62,1.72,7.5,1.49,11.54-.85,14.64-4.28,7.83-3.84,14.21l4.54,66.5c1.16,16.92.99,33.3.55,50.21-.34,13.1-.2,32.94,6.97,44.14,5.08,7.93,15.45,16.31,20.48,27,2.11,4.47,3.21,9.02,3.1,14.17l-5.4,252.5c-.09,4.02-.86,7.19-3.22,10.44-11.77,16.24-31.21,18.43-49.09,20.98l-37.63-.81c-9.21-1.61-18.07-3.22-26.81-6.61-8.07-2.99-15.01-7.78-20.1-14.78-1.78-2.45-4.09-5.63-4.02-9.07l2.85-140.4,2.57-114.47c.15-6.4,1.78-11.89,5.1-17.16,6.17-9.81,16.45-17.95,20.42-23.99,5.78-8.76,8.06-23.51,8.43-33.97l1.31-37.23c1.05-29.86,5.27-59.16,9.07-88.74.8-6.24-3.18.16-3.23-14.78-.02-3.67.58-6.94,1.64-10.37-1.73-.07-3.37-1.35-2.94-3.1l2.81-11.63c.69-2.87,3.13-4.77,6.02-5.19l13.34-1.93,36.79.79h0Z"/>
  <g>
    <path class="st3" d="M152.94,470.62c-2.12-3.71-5-6.85-8.54-9.33-3.05-2.13-6.53-3.81-10.34-5.01-.53-.17-1.06-.32-1.6-.47-4.39-1.19-8.97-1.79-13.62-1.78-8.29.02-16.4,1.15-24.12,3.37-7.63,2.19-14.95,5.12-21.78,8.7-.49.24-.97.36-1.49.36,0,0-.05-.02-.14-.08-.07-.06-.26-.23-.46-.69-.55-1.78-.98-3.66-1.3-5.59-.32-1.96-.48-3.83-.49-5.56,0-3.84.58-7.61,1.76-11.2,1.17-3.59,2.82-6.81,4.88-9.58,2.03-2.71,4.43-4.91,7.15-6.53,2.63-1.57,5.39-2.33,8.44-2.34,1.74,0,3.56.29,5.42.87,1.96.61,4.07,1.55,6.29,2.79,1.41.85,2.8,1.5,4.15,1.92s2.69.64,3.98.63c1.52,0,3.04-.31,4.53-.91,1.47-.59,2.88-1.51,4.19-2.73l2.81-2.49.04-.03.03-.03c3.04-2.87,4.58-5.98,4.57-9.27,0-3.01-1.43-5.79-4.21-8.27l-.03-.03-.04-.03c-3.59-3-7.55-5.36-11.79-7.02-.71-.28-1.44-.53-2.18-.77-3.72-1.17-7.85-1.75-12.27-1.74-8.64.02-16.56,1.82-23.55,5.34-6.93,3.49-12.91,8.14-17.77,13.82-4.84,5.66-8.59,12.2-11.16,19.44-2.56,7.21-3.84,14.69-3.82,22.22.02,8.46,1.81,16.5,5.3,23.89,3.48,7.36,8.43,13.87,14.69,19.35,6.24,5.45,13.82,9.79,22.55,12.88.83.3,1.69.58,2.53.85,8.02,2.52,16.93,3.78,26.47,3.76,5.73-.01,11.29-.82,16.52-2.39,5.28-1.59,10.01-3.9,14.06-6.87,4.13-3.03,7.45-6.79,9.88-11.19,2.47-4.47,3.72-9.56,3.7-15.15-.01-4.91-1.11-9.31-3.27-13.1ZM124.13,490.07c-2.38,1.34-6.08,2.03-11.01,2.04-3.83,0-7.59-.33-11.18-1-1.24-.23-2.56-.57-3.91-.99-2.49-.78-5.21-1.9-8.08-3.33-.55-.26-.86-.48-1.03-.63.26-.24.62-.46,1.07-.65,3.9-1.6,7.85-2.84,11.72-3.68,3.84-.83,7.6-1.26,11.16-1.27,1.52,0,3.23.12,5.07.36,1.24.16,2.43.43,3.54.77.43.14.86.29,1.27.45,1.31.52,2.4,1.22,3.24,2.09.37.38.87,1.05.87,2.41,0,.52,0,1.89-2.73,3.43Z"/>
    <path class="st3" d="M273.15,479.77c-.01-5.7-1.27-10.99-3.74-15.73-2.4-4.61-5.69-8.86-9.77-12.65-4-3.7-8.7-7.1-13.97-10.11-5.18-2.96-10.68-5.73-16.36-8.25-5.66-2.51-11.51-4.86-17.36-6.99-5.82-2.11-11.43-4.15-16.83-6.11-1.06-.4-1.51-.74-1.67-.89,0-.02,0-.04,0-.05.1-.06.47-.24,1.33-.32h.05s.05,0,.05,0c5.23-.61,10.6-1.04,15.97-1.28,5.4-.24,11-.37,16.63-.38,4.62-.01,9.45.07,14.36.25,4.94.18,10.49.37,16.65.58h.16s.16,0,.16,0c2.84-.21,5.13-1.15,6.82-2.79,1.75-1.7,2.67-4.03,2.66-6.72,0-.72-.05-1.45-.14-2.15-.09-.69-.23-1.39-.41-2.1l-.69-2.74c-.85-3.37-2.4-5.96-4.59-7.7-1.24-.98-2.68-1.73-4.28-2.23-1.18-.37-2.47-.61-3.83-.73-5.93-.45-12.3-.66-18.95-.65-7.56.02-15.87.39-24.68,1.1-8.81.71-18.65,1.97-29.25,3.75-5.42.96-9.71,3.05-12.76,6.2-3.05,3.15-4.98,7.48-5.74,12.87-.54,3.23-.85,5.41-.92,6.65-.08,1.2-.12,2.09-.11,2.7.02,6.11,2.47,14.41,14.08,19.26,10.94,4.45,20.85,8.45,29.48,11.91,8.51,3.41,15.81,6.79,21.69,10.04,5.7,3.16,10.1,6.4,13.06,9.63,2.7,2.94,4.02,6.16,4.03,9.82,0,3.51-1.55,6.08-4.9,8.09-3.76,2.26-9.41,3.42-16.8,3.44-3.9.01-7.92-.38-11.96-1.17-1.57-.3-3.1-.69-4.54-1.14-2.17-.68-4.23-1.55-6.12-2.57-3.02-1.63-5.52-3.76-7.42-6.31-1.8-2.41-2.67-5.27-2.68-8.75,0-2.11.4-4.49,1.21-7.08.18-.56.33-1.17.43-1.77.1-.65.15-1.22.15-1.75,0-3.79-2.18-6.56-6.11-7.79-1.39-.44-2.99-.69-4.88-.76l-5.71-.21h-.06s-.06,0-.06,0c-2.57,0-4.97.65-7.14,1.9-2.25,1.31-4.05,3.48-5.36,6.47-1.14,2.31-2.01,4.71-2.58,7.14-.58,2.45-.87,5.28-.86,8.39.02,7.2,1.92,13.59,5.65,19,3.62,5.27,8.38,9.67,14.13,13.09,4.16,2.47,8.76,4.51,13.67,6.05,1.75.55,3.58,1.05,5.43,1.48,6.96,1.62,14.06,2.44,21.1,2.42,8.07-.02,15.51-1.04,22.11-3.03,6.67-2.02,12.44-4.91,17.14-8.59,4.76-3.72,8.5-8.23,11.11-13.4,2.62-5.2,3.94-11.03,3.93-17.33Z"/>
  </g>
  <rect class="st1" x="66.53" y="431.66" width="21.4" height="28.12" transform="translate(136.99 -2.68) rotate(17.42)"/>
  <rect class="st1" x="218.96" y="468.6" width="21.4" height="28.12" transform="translate(155.04 -46.62) rotate(17.42)"/>
  <g>
    <path class="st1" d="M82.59,525.1c-.97-.3-1.93-.63-2.88-.96-9.92-3.51-18.59-8.49-25.79-14.78-7.3-6.38-13.07-13.99-17.14-22.6-4.13-8.73-6.24-18.19-6.27-28.14-.02-8.68,1.46-17.29,4.4-25.58,2.97-8.4,7.34-16,12.98-22.6,5.73-6.7,12.75-12.17,20.87-16.26,8.39-4.22,17.82-6.38,28.02-6.4,5.44-.01,10.58.73,15.29,2.2.95.3,1.9.63,2.82.99,5.25,2.06,10.15,4.97,14.57,8.66l.3.26c6.24,5.54,7.56,11.61,7.57,15.71.01,4.23-1.32,10.54-7.71,16.57l-.3.28-2.73,2.42c-2.19,2.01-4.6,3.56-7.16,4.59-2.67,1.08-5.45,1.63-8.24,1.63-2.32,0-4.67-.36-7-1.09-2.06-.65-4.13-1.59-6.17-2.81-1.57-.87-3.01-1.51-4.28-1.91-.87-.27-1.7-.42-2.4-.41-1.26,0-2.26.28-3.35.93-1.59.94-3.02,2.26-4.25,3.92-1.42,1.9-2.56,4.16-3.39,6.71-.61,1.86-1,3.79-1.17,5.76,4.16-1.69,8.43-3.16,12.8-4.42,8.61-2.47,17.64-3.73,26.85-3.75,5.55-.02,11.02.7,16.28,2.13.68.19,1.33.38,1.97.58,4.78,1.5,9.18,3.64,13.07,6.35,4.77,3.34,8.64,7.56,11.5,12.56,3.03,5.31,4.58,11.38,4.59,18.04.02,7.31-1.65,14.04-4.95,20.01-3.14,5.67-7.42,10.52-12.72,14.41-4.97,3.65-10.72,6.47-17.1,8.39-6.15,1.85-12.67,2.8-19.37,2.81-10.57.03-20.49-1.39-29.49-4.21Z"/>
    <path class="st1" d="M189.33,527.76c-5.65-1.77-10.97-4.13-15.79-7-7.01-4.17-12.81-9.56-17.26-16.02-4.89-7.1-7.38-15.39-7.41-24.65,0-3.89.37-7.49,1.12-10.7.73-3.1,1.82-6.16,3.25-9.09,2.18-4.86,5.34-8.52,9.4-10.88.86-.5,1.75-.94,2.65-1.33-8.58-5.82-13.35-14.53-13.37-24.77,0-.86.04-1.93.13-3.38.1-1.6.42-3.94,1.02-7.54,1.08-7.46,3.91-13.61,8.43-18.28,4.55-4.7,10.67-7.76,18.2-9.1,10.97-1.84,21.1-3.14,30.2-3.88,9.06-.73,17.62-1.11,25.45-1.13,6.91-.02,13.55.21,19.73.67,2.18.18,4.2.57,6.08,1.16,2.78.87,5.3,2.19,7.49,3.93,3.97,3.14,6.68,7.55,8.09,13.1l.69,2.74c.27,1.08.48,2.15.62,3.18.16,1.19.23,2.34.24,3.49.01,5.39-2.01,10.33-5.69,13.91-3.38,3.28-7.89,5.22-13.06,5.6l-.72.05-.7-.03c-6.15-.21-11.71-.41-16.65-.58-.33-.01-.67-.02-1-.03,3.48,1.71,6.88,3.51,10.15,5.38,5.94,3.39,11.25,7.25,15.8,11.46,4.93,4.57,8.92,9.74,11.85,15.36,3.21,6.17,4.85,13.01,4.87,20.32.02,7.89-1.66,15.24-5,21.86-3.28,6.5-7.95,12.14-13.88,16.78-5.69,4.45-12.55,7.9-20.41,10.28-7.53,2.27-15.93,3.44-24.98,3.46-7.81.02-15.68-.88-23.39-2.68-2.09-.49-4.16-1.05-6.15-1.68ZM200.56,471.5c-.61,1.98-.74,3.27-.74,4.01,0,1.87.48,2.5.7,2.81,1.03,1.38,2.42,2.55,4.15,3.49,1.33.72,2.79,1.33,4.36,1.82,1.09.34,2.25.63,3.45.86,3.41.66,6.78.99,10.03.98,7.56-.02,10.68-1.41,11.67-2,0,0,.02-.01.03-.02-.08-.7-.37-1.48-1.36-2.57-1.54-1.67-4.61-4.36-10.54-7.64-5.51-3.05-12.43-6.25-20.56-9.51-.06-.02-.12-.05-.18-.07.03.41.04.82.04,1.24,0,1.08-.09,2.18-.28,3.36-.19,1.14-.45,2.2-.78,3.23Z"/>
    <path class="st4" d="M152.94,470.62c-2.12-3.71-5-6.85-8.54-9.33-3.05-2.13-6.53-3.81-10.34-5.01-.53-.17-1.06-.32-1.6-.47-4.39-1.19-8.97-1.79-13.62-1.78-8.29.02-16.4,1.15-24.12,3.37-7.63,2.19-14.95,5.12-21.78,8.7-.49.24-.97.36-1.49.36,0,0-.05-.02-.14-.08-.07-.06-.26-.23-.46-.69-.55-1.78-.98-3.66-1.3-5.59-.32-1.96-.48-3.83-.49-5.56,0-3.84.58-7.61,1.76-11.2,1.17-3.59,2.82-6.81,4.88-9.58,2.03-2.71,4.43-4.91,7.15-6.53,2.63-1.57,5.39-2.33,8.44-2.34,1.74,0,3.56.29,5.42.87,1.96.61,4.07,1.55,6.29,2.79,1.41.85,2.8,1.5,4.15,1.92s2.69.64,3.98.63c1.52,0,3.04-.31,4.53-.91,1.47-.59,2.88-1.51,4.19-2.73l2.81-2.49.04-.03.03-.03c3.04-2.87,4.58-5.98,4.57-9.27,0-3.01-1.43-5.79-4.21-8.27l-.03-.03-.04-.03c-3.59-3-7.55-5.36-11.79-7.02-.71-.28-1.44-.53-2.18-.77-3.72-1.17-7.85-1.75-12.27-1.74-8.64.02-16.56,1.82-23.55,5.34-6.93,3.49-12.91,8.14-17.77,13.82-4.84,5.66-8.59,12.2-11.16,19.44-2.56,7.21-3.84,14.69-3.82,22.22.02,8.46,1.81,16.5,5.3,23.89,3.48,7.36,8.43,13.87,14.69,19.35,6.24,5.45,13.82,9.79,22.55,12.88.83.3,1.69.58,2.53.85,8.02,2.52,16.93,3.78,26.47,3.76,5.73-.01,11.29-.82,16.52-2.39,5.28-1.59,10.01-3.9,14.06-6.87,4.13-3.03,7.45-6.79,9.88-11.19,2.47-4.47,3.72-9.56,3.7-15.15-.01-4.91-1.11-9.31-3.27-13.1ZM124.13,490.07c-2.38,1.34-6.08,2.03-11.01,2.04-3.83,0-7.59-.33-11.18-1-1.24-.23-2.56-.57-3.91-.99-2.49-.78-5.21-1.9-8.08-3.33-.55-.26-.86-.48-1.03-.63.26-.24.62-.46,1.07-.65,3.9-1.6,7.85-2.84,11.72-3.68,3.84-.83,7.6-1.26,11.16-1.27,1.52,0,3.23.12,5.07.36,1.24.16,2.43.43,3.54.77.43.14.86.29,1.27.45,1.31.52,2.4,1.22,3.24,2.09.37.38.87,1.05.87,2.41,0,.52,0,1.89-2.73,3.43Z"/>
    <path class="st4" d="M273.15,479.77c-.01-5.7-1.27-10.99-3.74-15.73-2.4-4.61-5.69-8.86-9.77-12.65-4-3.7-8.7-7.1-13.97-10.11-5.18-2.96-10.68-5.73-16.36-8.25-5.66-2.51-11.51-4.86-17.36-6.99-5.82-2.11-11.43-4.15-16.83-6.11-1.06-.4-1.51-.74-1.67-.89,0-.02,0-.04,0-.05.1-.06.47-.24,1.33-.32h.05s.05,0,.05,0c5.23-.61,10.6-1.04,15.97-1.28,5.4-.24,11-.37,16.63-.38,4.62-.01,9.45.07,14.36.25,4.94.18,10.49.37,16.65.58h.16s.16,0,.16,0c2.84-.21,5.13-1.15,6.82-2.79,1.75-1.7,2.67-4.03,2.66-6.72,0-.72-.05-1.45-.14-2.15-.09-.69-.23-1.39-.41-2.1l-.69-2.74c-.85-3.37-2.4-5.96-4.59-7.7-1.24-.98-2.68-1.73-4.28-2.23-1.18-.37-2.47-.61-3.83-.73-5.93-.45-12.3-.66-18.95-.65-7.56.02-15.87.39-24.68,1.1-8.81.71-18.65,1.97-29.25,3.75-5.42.96-9.71,3.05-12.76,6.2-3.05,3.15-4.98,7.48-5.74,12.87-.54,3.23-.85,5.41-.92,6.65-.08,1.2-.12,2.09-.11,2.7.02,6.11,2.47,14.41,14.08,19.26,10.94,4.45,20.85,8.45,29.48,11.91,8.51,3.41,15.81,6.79,21.69,10.04,5.7,3.16,10.1,6.4,13.06,9.63,2.7,2.94,4.02,6.16,4.03,9.82,0,3.51-1.55,6.08-4.9,8.09-3.76,2.26-9.41,3.42-16.8,3.44-3.9.01-7.92-.38-11.96-1.17-1.57-.3-3.1-.69-4.54-1.14-2.17-.68-4.23-1.55-6.12-2.57-3.02-1.63-5.52-3.76-7.42-6.31-1.8-2.41-2.67-5.27-2.68-8.75,0-2.11.4-4.49,1.21-7.08.18-.56.33-1.17.43-1.77.1-.65.15-1.22.15-1.75,0-3.79-2.18-6.56-6.11-7.79-1.39-.44-2.99-.69-4.88-.76l-5.71-.21h-.06s-.06,0-.06,0c-2.57,0-4.97.65-7.14,1.9-2.25,1.31-4.05,3.48-5.36,6.47-1.14,2.31-2.01,4.71-2.58,7.14-.58,2.45-.87,5.28-.86,8.39.02,7.2,1.92,13.59,5.65,19,3.62,5.27,8.38,9.67,14.13,13.09,4.16,2.47,8.76,4.51,13.67,6.05,1.75.55,3.58,1.05,5.43,1.48,6.96,1.62,14.06,2.44,21.1,2.42,8.07-.02,15.51-1.04,22.11-3.03,6.67-2.02,12.44-4.91,17.14-8.59,4.76-3.72,8.5-8.23,11.11-13.4,2.62-5.2,3.94-11.03,3.93-17.33Z"/>
  </g>
</svg>