<?xml version="1.0" encoding="UTF-8"?>
<svg id="a" data-name="Layer 1" xmlns="http://www.w3.org/2000/svg" viewBox="0 0 893.23 796.85">
  <defs>
    <style>
      .b {
        fill: #b4203c;
      }
    </style>
  </defs>
  <path class="b" d="M547.59,625.32c8.05-8.18,5.88-24.12,5.78-35.4-1.58-42.47-19.85-77.16-59.84-94.64-8.42-3.64-17.27-6.4-26.31-7.96-11.05-1.91-20.51.46-22.77,12.51-.79,3.7-.96,8.11-.97,12.11.07,31.72-.13,63.73.08,95.61.15,9.4,2.47,19.21,12.48,21.94,3.71,1.16,8.24,1.48,12.37,1.54,18.87.06,37.75-.03,56.62-.02,7.64-.06,16.79-.14,22.47-5.6l.08-.08ZM509.45,588.16c-2.72,2.73-8.66,1.89-12.61,2.03-3.43-.1-7.46.46-10.2-1.95-2.61-2.69-2.13-6.47-2.22-10.73.04-8.84-.03-17.56-.35-26.38.11-3.7-.8-9.27,1.58-12.03,3.68-2.77,10.59,6.27,12.81,8.94,6.61,8.68,10.9,18.38,12.42,29.06.41,3.56,1.21,8.19-1.36,10.98l-.08.08Z"/>
  <path class="b" d="M175.78,366.97c-6.86,4.67-7.56,16.29-9.07,24.3-4.84,30.35,3.25,57.53,29.16,75.55,5.46,3.76,11.35,6.97,17.55,9.34,7.57,2.9,14.62,2.55,17.91-5.68,1.08-2.51,1.82-5.62,2.39-8.45,4.41-22.51,9.04-45.19,13.37-67.84,1.22-6.69.94-13.97-5.77-17.32-2.47-1.34-5.64-2.21-8.56-2.83-13.38-2.7-26.79-5.28-40.17-7.93-5.43-1.03-11.93-2.26-16.73.82l-.07.05ZM197.61,398.69c2.32-1.55,6.41-.12,9.23.33,2.42.55,5.36.72,6.96,2.82,1.48,2.27.6,4.89.07,7.93-1.27,6.27-2.44,12.46-3.46,18.77-.6,2.61-.73,6.69-2.81,8.31-3,1.45-6.63-5.93-7.83-8.14-3.47-7.09-5.15-14.57-4.73-22.36.21-2.59.29-5.98,2.5-7.6l.07-.05Z"/>
  <path class="b" d="M459.9,238.27c-2.95,9.88,5.47,21.63,10.29,30.54,19.11,33.05,48.2,52.92,87.3,49.99,8.21-.65,16.4-2.18,24.23-4.74,9.57-3.13,16.09-8.99,12.82-19.5-.93-3.27-2.65-6.85-4.32-10.02-13.39-25.16-26.69-50.65-40.26-75.88-4.07-7.4-10.04-14.21-19.13-12.18-3.43.64-7.17,2.29-10.47,3.98-15.01,7.88-29.96,15.89-44.95,23.82-6.04,3.26-13.27,7.17-15.49,13.89l-.03.1ZM505.8,251.74c1.02-3.31,6.08-5.14,9.16-6.91,2.77-1.36,5.73-3.5,8.92-2.74,3.2,1.03,4.41,4.24,6.27,7.59,3.69,7.04,7.41,13.93,11.37,20.8,1.47,2.99,4.54,7.03,3.8,10.21-1.75,3.75-11.04-.52-13.93-1.71-8.9-4.11-16.38-10.01-22.08-17.85-1.82-2.66-4.4-6-3.54-9.29l.03-.1Z"/>
  <path class="b" d="M508.65,96.25c-2.22,7.42,4.11,16.24,7.73,22.94,14.36,24.83,36.21,39.75,65.58,37.55,6.17-.49,12.32-1.64,18.2-3.56,7.19-2.35,12.09-6.75,9.63-14.65-.7-2.46-1.99-5.14-3.25-7.53-10.06-18.9-20.05-38.05-30.24-57-3.06-5.56-7.54-10.67-14.37-9.15-2.58.48-5.38,1.72-7.86,2.99-11.27,5.92-22.51,11.94-33.76,17.9-4.54,2.45-9.97,5.39-11.63,10.44l-.02.08ZM543.13,106.38c.76-2.49,4.57-3.86,6.88-5.19,2.08-1.02,4.3-2.63,6.7-2.06,2.41.78,3.31,3.18,4.71,5.7,2.77,5.29,5.56,10.46,8.54,15.63,1.1,2.24,3.41,5.28,2.86,7.67-1.32,2.81-8.3-.39-10.46-1.29-6.68-3.09-12.31-7.52-16.59-13.41-1.37-2-3.31-4.5-2.66-6.98l.02-.08Z"/>
  <path class="b" d="M321.41,486.67c13.76,6.99,33.32-2.28,47.73-7,53.8-19.32,90.83-56.86,96.96-115.24,1.24-12.27,1.18-24.74-.51-36.96-2.05-14.94-8.94-26.11-25.3-24.09-5.07.49-10.79,2.07-15.92,3.69-40.63,13-81.74,25.78-122.53,39.02-11.99,4.01-23.61,10.99-23.05,24.93.03,5.23,1.46,11.17,3.06,16.48,7.6,24.21,15.41,48.39,23.08,72.57,3.18,9.77,7.02,21.47,16.33,26.53l.14.08ZM353.52,422.66c-4.6-2.38-5.95-10.34-7.74-15.34-1.27-4.44-3.63-9.37-1.65-13.87,2.38-4.44,7.42-5.36,12.86-7.21,11.35-3.55,22.5-7.19,33.68-11.19,4.79-1.36,11.56-4.81,16.06-2.87,5.05,3.58-3.72,16.13-6.24,20.06-8.44,12.01-19.12,21.46-32.2,27.76-4.4,1.98-10.01,4.88-14.63,2.73l-.14-.07Z"/>
  <path class="b" d="M266.73,205.28c7.35,3.73,17.79-1.22,25.49-3.74,28.72-10.31,48.5-30.36,51.77-61.53.66-6.55.63-13.21-.27-19.73-1.1-7.98-4.78-13.94-13.51-12.86-2.7.26-5.76,1.11-8.5,1.97-21.69,6.94-43.64,13.77-65.42,20.84-6.4,2.14-12.61,5.87-12.31,13.31.02,2.79.78,5.96,1.63,8.8,4.06,12.93,8.23,25.83,12.32,38.75,1.7,5.22,3.75,11.46,8.72,14.16l.08.04ZM283.88,171.1c-2.46-1.27-3.18-5.52-4.13-8.19-.68-2.37-1.94-5.01-.88-7.41,1.27-2.37,3.96-2.86,6.86-3.85,6.06-1.9,12.01-3.84,17.98-5.97,2.56-.73,6.17-2.57,8.57-1.53,2.7,1.91-1.99,8.61-3.33,10.71-4.5,6.41-10.21,11.46-17.19,14.82-2.35,1.06-5.34,2.61-7.81,1.46l-.08-.04Z"/>
  <path class="b" d="M688.41,578.29c-4.08,8.04,1.33,19.46,4.09,27.87,11.28,31.41,33.2,53.04,67.29,56.62,7.17.72,14.45.69,21.58-.3,8.72-1.2,15.25-5.22,14.07-14.77-.29-2.96-1.21-6.3-2.15-9.29-7.59-23.73-15.06-47.73-22.79-71.55-2.34-7-6.42-13.79-14.56-13.46-3.05.02-6.52.85-9.62,1.79-14.14,4.44-28.25,9-42.38,13.48-5.71,1.86-12.54,4.1-15.49,9.53l-.04.08ZM725.79,597.04c1.39-2.69,6.04-3.47,8.95-4.52,2.59-.74,5.47-2.12,8.1-.96,2.59,1.39,3.13,4.33,4.21,7.51,2.07,6.63,4.2,13.14,6.53,19.67.79,2.8,2.81,6.75,1.68,9.38-2.09,2.95-9.42-2.17-11.72-3.65-7.01-4.93-12.53-11.16-16.21-18.8-1.15-2.57-2.85-5.85-1.6-8.54l.04-.08Z"/>
  <path class="b" d="M784.05,480.33c-8.39,4.26-20.3-1.39-29.08-4.27-32.78-11.77-55.34-34.64-59.07-70.21-.75-7.48-.72-15.08.31-22.52,1.25-9.1,5.45-15.91,15.41-14.68,3.09.3,6.58,1.26,9.7,2.25,24.75,7.92,49.8,15.71,74.65,23.77,7.31,2.45,14.39,6.69,14.04,15.19-.02,3.19-.89,6.81-1.86,10.04-4.63,14.75-9.39,29.48-14.06,44.21-1.94,5.95-4.28,13.08-9.95,16.16l-.09.05ZM764.48,441.33c2.8-1.45,3.62-6.3,4.71-9.34.77-2.71,2.21-5.71,1-8.45-1.45-2.71-4.52-3.27-7.83-4.39-6.91-2.16-13.71-4.38-20.52-6.81-2.92-.83-7.04-2.93-9.78-1.75-3.08,2.18,2.27,9.83,3.8,12.22,5.14,7.31,11.65,13.07,19.62,16.91,2.68,1.2,6.1,2.97,8.91,1.66l.09-.04Z"/>
  <path class="b" d="M739.65,341.41c-2.94,1.49-7.12-.49-10.21-1.5-11.5-4.13-19.42-12.16-20.73-24.64-.26-2.62-.25-5.29.11-7.9.44-3.19,1.91-5.58,5.41-5.15,1.08.1,2.31.44,3.4.79,8.69,2.78,17.48,5.51,26.2,8.34,2.56.86,5.05,2.35,4.93,5.33,0,1.12-.31,2.39-.65,3.52-1.62,5.18-3.29,10.35-4.94,15.52-.68,2.09-1.5,4.59-3.49,5.67l-.03.02ZM732.78,327.73c.98-.51,1.27-2.21,1.65-3.28.27-.95.78-2,.35-2.97-.51-.95-1.59-1.15-2.75-1.54-2.43-.76-4.81-1.54-7.2-2.39-1.02-.29-2.47-1.03-3.43-.61-1.08.77.8,3.45,1.33,4.29,1.8,2.57,4.09,4.59,6.88,5.93.94.42,2.14,1.04,3.13.58l.03-.02Z"/>
  <path class="b" d="M494.5,384.1c-1.97-2.65-.72-7.1-.24-10.31,2.14-12.03,8.72-21.19,20.81-24.57,2.54-.7,5.17-1.14,7.81-1.22,3.22-.1,5.82.95,5.99,4.47.08,1.09-.05,2.35-.21,3.49-1.28,9.03-2.5,18.15-3.83,27.23-.42,2.67-1.47,5.37-4.43,5.75-1.1.18-2.41.09-3.58-.05-5.38-.73-10.75-1.51-16.12-2.26-2.17-.32-4.78-.71-6.18-2.49l-.02-.03ZM506.84,375.03c.67.88,2.39.88,3.51,1.08.98.11,2.11.43,2.98-.15.85-.66.86-1.76,1.06-2.97.34-2.52.71-5,1.15-7.5.11-1.06.6-2.61.03-3.49-.94-.94-3.27,1.36-4,2.04-2.23,2.21-3.84,4.8-4.69,7.78-.26,1-.67,2.29-.05,3.18l.02.03Z"/>
  <path class="b" d="M596.94,602.93c-2.76-3.72-1-9.97-.33-14.47,3-16.89,12.24-29.74,29.21-34.49,3.57-.98,7.26-1.59,10.96-1.71,4.52-.15,8.17,1.33,8.4,6.27.11,1.52-.07,3.3-.29,4.89-1.8,12.68-3.51,25.48-5.37,38.21-.58,3.75-2.06,7.54-6.21,8.07-1.55.25-3.38.13-5.03-.07-7.55-1.03-15.09-2.12-22.63-3.17-3.05-.45-6.7-1-8.67-3.49l-.03-.04ZM614.26,590.2c.94,1.24,3.36,1.24,4.93,1.52,1.38.15,2.96.6,4.19-.21,1.19-.93,1.21-2.47,1.49-4.17.48-3.54.99-7.02,1.61-10.53.16-1.49.84-3.66.04-4.9-1.31-1.31-4.58,1.91-5.62,2.86-3.13,3.1-5.38,6.74-6.59,10.92-.36,1.4-.94,3.21-.07,4.46l.03.04Z"/>
  <path class="b" d="M187.71,681.58c-7.22-.7-12.62-9.3-17.14-14.81-16.44-21.22-21.65-45.43-9.36-70.1,2.6-5.17,5.77-10.1,9.52-14.51,4.58-5.4,10.13-8.09,16.1-3.17,1.88,1.47,3.75,3.54,5.38,5.47,12.82,15.39,25.88,30.82,38.7,46.35,3.74,4.61,6.58,10.31,2.84,15.69-1.33,2.06-3.4,4.06-5.37,5.76-9.11,7.68-18.3,15.28-27.44,22.93-3.72,3.07-8.19,6.73-13.16,6.39h-.07ZM191.13,648.13c2.42.22,4.96-2.59,6.93-4.13,1.62-1.44,3.8-2.8,4.15-5.08.18-2.36-1.59-4-3.27-6.1-3.6-4.27-7.1-8.52-10.52-12.92-1.55-1.75-3.37-4.82-5.64-5.19-2.9.15-2.59,7.33-2.59,9.52.32,6.88,2.16,13.32,5.76,19.11,1.24,1.89,2.73,4.46,5.11,4.77h.07Z"/>
  <path class="b" d="M269.44,671.95c-2.95-3.51-1.58-9.78-1.19-14.26,1.96-16.84,10.31-30.06,26.76-35.76,3.46-1.18,7.07-2.01,10.71-2.34,4.45-.41,8.14.83,8.66,5.69.2,1.5.13,3.26,0,4.85-1.02,12.61-1.94,25.35-3.02,38.02-.35,3.73-1.58,7.56-5.65,8.34-1.51.34-3.32.33-4.97.23-7.5-.56-15.01-1.19-22.52-1.78-3.04-.26-6.67-.58-8.76-2.93l-.03-.04ZM285.77,658.37c1,1.17,3.39,1.02,4.95,1.2,1.37.07,2.95.42,4.12-.46,1.12-.99,1.05-2.51,1.22-4.2.26-3.52.56-6.98.96-10.48.07-1.47.61-3.66-.25-4.83-1.37-1.22-4.41,2.16-5.37,3.15-2.9,3.24-4.91,6.97-5.85,11.17-.28,1.4-.74,3.22.2,4.41l.03.04Z"/>
  <path class="b" d="M169.52,296.52c-6.01,3.05-14.55-1-20.85-3.06-23.5-8.44-39.67-24.83-42.35-50.33-.54-5.36-.51-10.81.22-16.14.9-6.52,3.91-11.4,11.05-10.52,2.21.21,4.71.91,6.95,1.61,17.75,5.68,35.7,11.26,53.51,17.04,5.24,1.75,10.31,4.8,10.07,10.89-.01,2.28-.64,4.88-1.34,7.2-3.32,10.57-6.73,21.13-10.08,31.7-1.39,4.27-3.07,9.38-7.13,11.59l-.06.03ZM155.5,268.56c2.01-1.04,2.6-4.51,3.38-6.7.55-1.94,1.59-4.09.72-6.06-1.04-1.94-3.24-2.34-5.61-3.15-4.96-1.55-9.83-3.14-14.71-4.89-2.09-.59-5.05-2.1-7.01-1.26-2.2,1.56,1.62,7.04,2.73,8.76,3.68,5.24,8.35,9.37,14.06,12.12,1.92.86,4.37,2.13,6.39,1.19l.06-.03Z"/>
  <path class="b" d="M660.74,294.96c5.62,3.18,5.85,17.86,6.64,23.92.92,10.87.15,21.93-2.37,32.57-6.71,29.01-26.69,54.5-53.04,68.33-16.75,8.96-36.5,14.25-54.91,18.63-6.58,1.54-9.52-2.1-11.15-7.97-2.42-7.59-4.86-15.21-7.27-22.8-.44-1.41-.84-2.99-.92-4.38-.41-4.33,3.26-6.01,7.32-6.86,3.09-.69,7.47-1.39,10.56-2.15,28.72-6.43,58.49-21.75,66.06-52.46,7.17-26.36-7.37-34.88,8.69-39.61,7.32-2.33,14.66-4.6,21.83-6.95,2.69-.84,5.91-1.65,8.44-.33l.11.06Z"/>
  <path class="b" d="M403.7,220.01c3.09,5.67-4.47,18.25-7.01,23.82-4.97,9.72-11.47,18.69-19.23,26.39-21.03,21.08-51.47,32.16-81.14,29.97-18.95-1.25-38.51-7.2-56.46-13.21-6.4-2.17-6.97-6.81-5.26-12.66,1.96-7.73,3.91-15.48,5.88-23.19.37-1.43.87-2.98,1.54-4.2,1.94-3.89,5.94-3.37,9.84-1.95,2.99,1.05,7.08,2.77,10.1,3.75,27.78,9.72,61.15,12.45,83.81-9.61,20.02-18.59,12.18-33.5,28.31-29.03,7.44,1.89,14.87,3.84,22.21,5.64,2.73.71,5.88,1.72,7.34,4.18l.06.11Z"/>
  <path class="b" d="M776.62,237.11c1.13-5.71-8.77-14.5-12.45-18.61-6.89-7.02-14.91-12.99-23.66-17.52-23.78-12.47-52.96-13.8-77.9-3.92-15.97,6.18-31.2,16.58-45.02,26.59-4.92,3.59-4.16,7.74-1.11,12.31,3.77,6.12,7.54,12.27,11.31,18.37.71,1.13,1.55,2.33,2.46,3.2,2.72,2.82,6.02,1.3,9-.97,2.29-1.71,5.34-4.29,7.68-5.95,21.28-15.85,49.26-27.19,74.7-14.32,22.23,10.6,19.51,25.54,32.19,17.35,5.89-3.63,11.76-7.32,17.59-10.84,2.16-1.34,4.6-3.07,5.19-5.58l.03-.11Z"/>
  <path class="b" d="M621.87,169.91c1.22,1.82,6.18,1.52,8.25,1.64,3.7.04,7.41-.51,10.94-1.63,9.63-3,17.73-10.4,21.74-19.65,2.6-5.89,3.88-12.69,4.9-19.02.35-2.26-.95-3.16-2.98-3.57-2.63-.62-5.26-1.26-7.89-1.88-.49-.11-1.03-.21-1.5-.2-1.47-.03-1.95,1.25-2.13,2.65-.15,1.06-.28,2.56-.46,3.62-1.44,9.87-5.86,20.31-16.04,23.65-8.72,3.09-11.97-1.6-13.16,3.94-.6,2.53-1.18,5.07-1.79,7.55-.22.93-.41,2.04.1,2.86l.02.04Z"/>
  <path class="b" d="M463.06,458.36c1.22,1.82,6.18,1.52,8.25,1.64,3.7.04,7.41-.51,10.94-1.63,9.63-3,17.73-10.4,21.74-19.65,2.6-5.89,3.88-12.69,4.9-19.02.35-2.26-.95-3.16-2.98-3.57-2.63-.62-5.26-1.26-7.89-1.88-.49-.11-1.03-.21-1.5-.2-1.47-.03-1.95,1.25-2.13,2.65-.15,1.06-.28,2.56-.46,3.62-1.44,9.87-5.86,20.31-16.04,23.65-8.72,3.09-11.97-1.6-13.16,3.94-.6,2.53-1.18,5.07-1.79,7.55-.22.93-.41,2.04.1,2.86l.02.04Z"/>
  <path class="b" d="M210.02,539.85c.62-3.14-4.82-7.97-6.84-10.23-3.79-3.86-8.19-7.14-13-9.63-13.07-6.85-29.1-7.58-42.81-2.15-8.78,3.4-17.14,9.11-24.74,14.61-2.71,1.98-2.29,4.25-.61,6.76,2.07,3.36,4.14,6.74,6.22,10.09.39.62.85,1.28,1.35,1.76,1.49,1.55,3.31.71,4.94-.53,1.26-.94,2.94-2.36,4.22-3.27,11.7-8.71,27.07-14.94,41.05-7.87,12.22,5.82,10.72,14.04,17.69,9.53,3.24-2,6.46-4.02,9.67-5.95,1.19-.74,2.53-1.69,2.85-3.06v-.06Z"/>
  <path class="b" d="M389.81,541.12c1.31,5.44-7.83,14.26-11.19,18.35-6.33,7.01-13.78,13.06-21.99,17.76-22.31,12.91-50.24,15.36-74.57,6.88-15.57-5.29-30.59-14.65-44.25-23.7-4.87-3.25-4.3-7.26-1.56-11.76,3.37-6.02,6.74-12.07,10.11-18.07.63-1.11,1.4-2.3,2.23-3.17,2.49-2.82,5.73-1.49,8.67.57,2.26,1.55,5.3,3.9,7.6,5.4,21.05,14.35,48.34,24.11,72.23,10.74,20.9-11.06,17.69-25.28,30.18-17.93,5.8,3.25,11.58,6.55,17.31,9.69,2.12,1.2,4.53,2.76,5.2,5.14l.03.11Z"/>
  <path class="b" d="M117.32,344.33c5.58.33,11.35,11.65,14.28,16.07,4.86,8.1,8.47,16.99,10.56,26.22,5.83,25.11.01,52.54-15.2,73.32-9.61,13.34-22.95,24.98-35.59,35.4-4.53,3.7-8.2,1.99-11.7-1.95-4.77-4.98-9.57-9.97-14.33-14.95-.88-.93-1.79-2.01-2.38-3.06-1.97-3.21.25-5.91,3.08-8.12,2.14-1.71,5.28-3.93,7.39-5.69,19.88-15.94,37.18-39.19,31.37-65.94-4.47-23.22-19.01-24.31-8.33-34.1,4.8-4.59,9.64-9.16,14.32-13.72,1.77-1.68,3.96-3.53,6.44-3.47h.11Z"/>
  <path class="b" d="M566.88,516.12c-1.31-5.44,7.83-14.26,11.19-18.35,6.33-7.01,13.78-13.06,21.99-17.76,22.31-12.91,50.24-15.36,74.57-6.88,15.57,5.29,30.59,14.65,44.25,23.7,4.87,3.25,4.3,7.26,1.56,11.76-3.37,6.02-6.74,12.07-10.11,18.07-.63,1.11-1.4,2.3-2.23,3.17-2.49,2.82-5.73,1.49-8.67-.57-2.26-1.55-5.3-3.9-7.6-5.4-21.05-14.35-48.34-24.11-72.23-10.74-20.9,11.06-17.69,25.28-30.18,17.93-5.8-3.25-11.58-6.55-17.31-9.69-2.12-1.2-4.53-2.76-5.2-5.14l-.03-.11Z"/>
  <path class="b" d="M429.03,692.24c-2.24,3.14-10.97,2.38-14.62,2.47-6.51-.12-13.03-1.26-19.19-3.41-16.82-5.77-30.73-19.21-37.32-35.71-4.29-10.5-6.21-22.55-7.68-33.76-.51-4,1.83-5.52,5.42-6.13,4.66-.97,9.33-1.95,13.98-2.91.86-.17,1.83-.31,2.66-.28,2.59.02,3.37,2.31,3.62,4.77.22,1.88.37,4.52.63,6.4,2.05,17.45,9.32,36.07,27.09,42.46,15.21,5.88,21.17-2.23,22.99,7.6.93,4.49,1.83,8.99,2.79,13.39.34,1.65.61,3.61-.32,5.03l-.04.06Z"/>
  <path class="b" d="M485.15,170.31c-2.24,3.14-10.97,2.38-14.62,2.47-6.51-.12-13.03-1.26-19.19-3.41-16.82-5.77-30.73-19.21-37.32-35.71-4.29-10.5-6.21-22.55-7.68-33.76-.51-4,1.83-5.52,5.42-6.13,4.66-.97,9.33-1.95,13.98-2.91.86-.17,1.83-.31,2.66-.28,2.59.02,3.37,2.31,3.62,4.77.22,1.88.37,4.52.63,6.4,2.05,17.45,9.32,36.07,27.09,42.46,15.21,5.88,21.17-2.23,22.99,7.6.93,4.49,1.83,8.99,2.79,13.39.34,1.65.61,3.61-.32,5.03l-.04.06Z"/>
  <path class="b" d="M651.35,659.86c3.09,5.67-4.47,18.25-7.01,23.82-4.97,9.72-11.47,18.69-19.23,26.39-21.03,21.08-51.47,32.16-81.14,29.97-18.95-1.25-38.51-7.2-56.46-13.21-6.4-2.17-6.97-6.81-5.26-12.66,1.96-7.73,3.91-15.48,5.88-23.19.37-1.43.87-2.98,1.54-4.2,1.94-3.89,5.94-3.37,9.84-1.95,2.99,1.05,7.08,2.77,10.1,3.75,27.78,9.72,61.15,12.45,83.81-9.61,20.02-18.59,12.18-33.5,28.31-29.03,7.44,1.89,14.87,3.84,22.21,5.64,2.73.71,5.88,1.72,7.34,4.18l.06.11Z"/>
</svg>