<?xml version="1.0" encoding="UTF-8"?>
<svg id="Layer_1" xmlns="http://www.w3.org/2000/svg" version="1.1" viewBox="0 0 407.31 180.26">
  <!-- Generator: Adobe Illustrator 30.1.0, SVG Export Plug-In . SVG Version: 2.1.1 Build 136)  -->
  <defs>
    <style>
      .st0 {
        fill: #274f37;
      }
    </style>
  </defs>
  <path class="st0" d="M191.58,28.48c4.16-3.87,16.53-.15,21.83.8,9.36,2.12,18.43,5.72,26.67,10.66,22.54,13.35,38.59,36.89,43.17,62.67,3.05,16.43,2.23,34.39,1,51-.46,5.93-4.29,7.42-9.65,7.23-7.01,0-14.05.03-21.05.02-1.3,0-2.73-.1-3.92-.4-3.74-.81-4.17-4.33-3.8-7.97.25-2.77.82-6.63,1.01-9.43,2.26-25.79-2.67-54.83-26.39-69.36-20.19-13.03-31.21-3.11-30.9-17.83,0-6.75.05-13.52-.02-20.15,0-2.48.19-5.39,1.97-7.17l.08-.08Z"/>
  <path class="st0" d="M218.68,157.42c-4.27,3.28-11.74,3.35-17.39,3.16-12.76-.43-15.86-10.09-13.83-21.54,1.25-9.13,7.52-14.44,16.7-14.48,8.64-.36,17.81,1.36,18.77,11.17.52,6.82,1.44,16.85-4.11,21.57l-.13.1Z"/>
  <path class="st0" d="M395.99,155.4c7.68-7.8,5.61-23.01,5.51-33.77-1.51-40.51-18.94-73.61-57.09-90.28-8.03-3.47-16.47-6.11-25.09-7.59-10.54-1.82-19.57.44-21.72,11.93-.76,3.53-.92,7.74-.92,11.55.06,30.26-.12,60.79.08,91.2.14,8.97,2.36,18.32,11.91,20.93,3.54,1.1,7.87,1.41,11.8,1.47,18,.06,36.02-.03,54.01-.02,7.29-.05,16.02-.14,21.44-5.34l.08-.08ZM359.62,119.95c-2.6,2.6-8.26,1.8-12.03,1.94-3.27-.09-7.12.44-9.73-1.86-2.49-2.56-2.03-6.17-2.12-10.24.04-8.43-.03-16.75-.33-25.17.11-3.53-.77-8.85,1.51-11.47,3.51-2.64,10.1,5.98,12.22,8.53,6.3,8.28,10.4,17.53,11.85,27.72.39,3.4,1.15,7.81-1.29,10.47l-.08.08Z"/>
  <path class="st0" d="M163.11,117.28c-.51-5.27-3.88-11.44-16.96-10.91-3.32.02-6.33.86-8.78,2.44-1.42-.04-3.08-.17-4.58-.63l-.18-.05c-3.06-.71-3.49-3.15-3.17-9.66.04-.91.09-1.86.1-2.75.14-1.45.2-2.96.26-4.56.19-4.7.4-10.02,2.88-12.71,1.66-1.32,3.05-1.88,4.17-2.15,1.98,1.09,4.36,1.69,7.1,1.78,5.23.18,11.1-.03,14.9-2.95l.2-.16c5.16-4.39,4.51-12.71,4.09-18.22l-.03-.43c-.51-5.27-3.88-11.44-16.96-10.91-2.97.02-5.63.66-7.92,1.92-2.29-.3-3.58-1.12-4.58-2.84-.97-1.93-1.05-4.2-1.14-7.08,0-1.7.03-2.25.05-2.42.25-.71.37-1.38.38-4.15,0-4.63-.71-7.71-2.29-9.97l-.05-.07c-4.92-6.59-15.05-5.2-20.67-2.11l-.07.04c-7.42,4.37-7.79,12.57-8.08,19.18-.44.81-.59,1.83-.71,2.64v.06c-.6,4.9-3.24,5.9-5.18,6.22l-.12.02c-2.23.47-4.79.55-7.02.59-1.14-.04-2.31-.03-3.56-.03-4.44.02-9.47.05-11.59-2.37-1.15-1.51-1.31-4.71-1.33-6.97,0-.82,0-1.3.02-1.59.36-.84.38-1.97.41-3.72.06-4.61.15-12.33-6.51-15.32l-.09-.04c-5.84-2.38-13.56-1.37-18.76,2.45l-.13.1c-5.85,4.86-5.94,10.08-6.02,14.69-.06,3.53-.11,6.57-2.48,9.8-1.49,1.77-3.63,2.48-6.37,2.88-2.78-1.49-6.44-2.12-11.16-1.93-8.28.05-14.12,5.12-15.25,13.24-1.1,6.27-.22,11.39,2.55,14.81,2.36,2.91,5.89,4.46,10.51,4.62,4.48.15,9.5.03,13.25-1.92,2.48.28,4.03.94,5.05,2.12,1.49,2.37,1.32,5.95,1.15,9.41-.04.9-.09,1.82-.1,2.72-.15,1.52-.21,3.07-.27,4.58-.19,4.86-.37,9.45-3.34,12.07-.82.51-1.64.89-2.52,1.18-2.76-1.44-6.38-2.05-11.02-1.86-8.28.05-14.12,5.12-15.25,13.24-1.1,6.27-.22,11.39,2.55,14.81,2.36,2.91,5.89,4.46,10.51,4.62,3.87.13,8.26.07,11.86-1.3,1.64.35,2.72.99,3.52,2.08,1.04,1.58,1.14,5.04,1.1,7.88-.03,2.23-.12,3-.22,3.81-.11.93-.23,1.9-.25,4.56-.29,11.31,5.31,14.23,8.71,14.97,1.56.32,3.13.48,4.68.48,4.1,0,8.02-1.11,11.04-3.19,3.35-2.32,5.47-5.71,6.15-9.83.73-2.84.83-5.87.92-8.81.14-4.45.27-8.65,2.7-10.52l.15-.12c2.12-1.88,12.8-2.16,20.57-1.15,4.87.65,6.29,3.22,6.06,11.06-.05,2.18-.13,2.78-.21,3.37-.1.72-.2,1.46-.23,3.88-.39,12.05,5.97,14.93,11.38,15.22h.07c19.09.53,19.44-9.35,19.79-18.9.12-3.25.24-6.61,1-10.02.7-3.27,3.38-4.7,9.5-5.02,1.89.95,4.14,1.48,6.68,1.56,5.23.18,11.1-.03,14.9-2.95l.2-.16c5.16-4.39,4.51-12.71,4.09-18.22l-.03-.43ZM99.43,89.41c-.06.98-.12,1.98-.16,2.97l-.06,1.26c-.49,10.29-1.03,14.48-9.72,14.93h-.06c-1.66.13-3.45.12-5.34.12h-.17c-.8-.01-1.62,0-2.48,0-3.99.02-8.96.05-11.05-2.04h0c-2.06-2.25-1.76-6.62-1.5-10.47.08-1.22.16-2.38.18-3.5.1-1.17.15-2.34.21-3.48.22-4.61.41-8.59,3.2-11.05,2.65-1.94,6.34-1.96,10.25-1.99.52,0,1.04,0,1.56-.01.58,0,1.16,0,1.75,0,1.99,0,3.87,0,5.61.1h.04c6.65.29,7.31,3.44,7.52,4.48v.04c.6,2.61.41,5.68.22,8.64Z"/>
</svg>