<?xml version="1.0" encoding="UTF-8"?>
<svg version="1.1" xmlns="http://www.w3.org/2000/svg" width="408" height="181">
<path d="M0 0 C2.5829045 2.10295158 3.7940314 3.8274067 4.84765625 6.98828125 C4.98206091 8.44473585 5.07122535 9.90568227 5.12890625 11.3671875 C5.18498047 12.62499023 5.18498047 12.62499023 5.2421875 13.90820312 C5.31265566 15.67382192 5.38296747 17.43944696 5.453125 19.20507812 C5.50919922 20.46094727 5.50919922 20.46094727 5.56640625 21.7421875 C5.59669922 22.50861572 5.62699219 23.27504395 5.65820312 24.06469727 C5.74011525 26.07102638 5.74011525 26.07102638 6.84765625 27.98828125 C10.51117206 29.20945319 13.90818597 29.17234479 17.72265625 29.17578125 C18.43035156 29.18802734 19.13804688 29.20027344 19.8671875 29.21289062 C25.70764345 29.30701308 25.70764345 29.30701308 30.84765625 26.98828125 C31.62619605 24.1437331 32.09404566 21.69968685 32.41015625 18.80078125 C33.20046936 12.05092189 34.27372857 6.22918385 39.56640625 1.4296875 C45.4628353 -1.47973473 51.35736465 -2.09495115 57.84765625 -1.01171875 C61.0687003 0.63838132 63.20613399 2.70523673 64.84765625 5.98828125 C64.98668779 7.39991725 65.07288532 8.81701562 65.12890625 10.234375 C65.18498047 11.49024414 65.18498047 11.49024414 65.2421875 12.77148438 C65.27699219 13.64740234 65.31179687 14.52332031 65.34765625 15.42578125 C65.41662406 17.15380796 65.4893841 18.88168856 65.56640625 20.609375 C65.59669922 21.37693115 65.62699219 22.1444873 65.65820312 22.93530273 C65.78742618 25.18711396 65.78742618 25.18711396 66.84765625 27.98828125 C69.84765625 29.32161458 69.84765625 29.32161458 72.84765625 27.98828125 C86.4907624 27.04109631 86.4907624 27.04109631 91.84765625 30.98828125 C96.38701992 35.99723426 96.1834103 41.19926281 96.1328125 47.67578125 C95.75862465 52.02251138 94.70369035 55.62979671 91.84765625 58.98828125 C84.3421144 63.44097374 75.11155181 62.36559718 66.84765625 60.98828125 C61.95740861 66.51638728 62.71289552 73.39290016 62.78515625 80.36328125 C62.78966797 81.19472656 62.79417969 82.02617188 62.79882812 82.8828125 C62.81052461 84.91800022 62.8284569 86.95315048 62.84765625 88.98828125 C67.8977522 89.92614207 67.8977522 89.92614207 72.84765625 88.98828125 C86.4907624 88.04109631 86.4907624 88.04109631 91.84765625 91.98828125 C96.42195183 97.03577982 96.12779874 102.23073075 96.0625 108.74609375 C95.78041569 113.00300242 95.1208236 115.38256752 92.84765625 118.98828125 C86.30015208 123.79822281 77.6310925 123.53863236 69.84765625 122.36328125 C69.18765625 122.22664063 68.52765625 122.09 67.84765625 121.94921875 C64.59858566 122.01267716 63.25735136 122.80170606 60.84765625 124.98828125 C59.99626918 128.05885758 59.87112697 131.12781826 59.72265625 134.30078125 C59.31719015 141.46218918 58.91141862 147.0816349 53.41015625 152.30078125 C48.07829028 155.81201006 42.04841061 155.47355768 35.84765625 154.98828125 C31.88450837 153.71441229 30.40853477 152.87799635 28.1953125 149.3671875 C26.63527944 145.45580027 26.57839576 142.17428757 26.78515625 138.05078125 C27.02815545 132.61690543 26.82864408 128.0738992 24.84765625 122.98828125 C21.01980332 121.71233027 17.39799055 121.80412956 13.41015625 121.80078125 C12.64638672 121.78853516 11.88261719 121.77628906 11.09570312 121.76367188 C5.64372953 121.66211734 5.64372953 121.66211734 0.84765625 123.98828125 C-0.2217047 127.19636411 -0.36135643 129.80465773 -0.52734375 133.17578125 C-1.04246213 140.19231798 -1.93175109 145.3001954 -6.52734375 150.86328125 C-12.25139268 155.49703514 -18.03665092 155.67413116 -25.15234375 154.98828125 C-29.40543819 153.3047647 -31.30325275 151.148736 -33.15234375 146.98828125 C-34.41625728 140.66871359 -34.19994274 134.39187255 -34.08984375 127.96484375 C-33.93825851 125.05950293 -33.93825851 125.05950293 -35.15234375 122.98828125 C-36.15394531 123.01148438 -37.15554687 123.0346875 -38.1875 123.05859375 C-39.52994039 123.07736914 -40.87238893 123.09556743 -42.21484375 123.11328125 C-44.18130859 123.14808594 -44.18130859 123.14808594 -46.1875 123.18359375 C-51.72601623 122.91076044 -55.75878979 122.16977265 -60.02734375 118.55078125 C-64.12640635 113.60779399 -63.6135362 108.12633346 -63.15234375 101.98828125 C-62.25029012 97.69819941 -60.84357163 94.66222843 -57.65234375 91.55078125 C-54.29555473 89.45278812 -51.86721239 88.86616619 -47.9921875 88.99609375 C-47.19876953 89.01285156 -46.40535156 89.02960938 -45.58789062 89.046875 C-43.91839724 89.09125559 -42.24909224 89.14337819 -40.58007812 89.203125 C-39.78794922 89.21730469 -38.99582031 89.23148437 -38.1796875 89.24609375 C-37.45515381 89.26816895 -36.73062012 89.29024414 -35.98413086 89.31298828 C-35.37964111 89.20583496 -34.77515137 89.09868164 -34.15234375 88.98828125 C-30.31814451 83.23698239 -31.01972565 76.24436293 -31.08984375 69.55078125 C-31.09435547 68.72384766 -31.09886719 67.89691406 -31.10351562 67.04492188 C-31.11518564 65.02600979 -31.13311657 63.00713551 -31.15234375 60.98828125 C-32.00614624 61.05728638 -32.00614624 61.05728638 -32.87719727 61.12768555 C-35.48871432 61.32844907 -38.10137951 61.50228083 -40.71484375 61.67578125 C-41.61009766 61.74861328 -42.50535156 61.82144531 -43.42773438 61.89648438 C-50.37391881 62.32903066 -55.04387071 61.60594275 -60.52734375 56.98828125 C-64.25421393 52.40136411 -63.57353912 46.59400867 -63.15234375 40.98828125 C-62.25029012 36.69819941 -60.84357163 33.66222843 -57.65234375 30.55078125 C-53.58586453 28.00923174 -50.4864848 27.85250518 -45.77734375 27.86328125 C-44.09511719 27.85941406 -44.09511719 27.85941406 -42.37890625 27.85546875 C-39.5066578 27.97369689 -36.95594895 28.41179301 -34.15234375 28.98828125 C-31.88637711 28.56368193 -31.88637711 28.56368193 -30.15234375 26.98828125 C-28.30398705 23.19428593 -28.03109963 19.6329606 -27.77734375 15.48828125 C-27.28347933 9.21279711 -25.26869587 5.89815999 -20.58984375 1.67578125 C-15.12794374 -2.10553414 -6.06506682 -2.85091163 0 0 Z M2.84765625 62.98828125 C1.425703 67.25414099 1.39742832 71.45557536 1.16015625 75.92578125 C1.07024414 77.28606445 1.07024414 77.28606445 0.97851562 78.67382812 C0.93146484 79.54974609 0.88441406 80.42566406 0.8359375 81.328125 C0.78993408 82.12597412 0.74393066 82.92382324 0.6965332 83.74584961 C0.86931299 86.30963371 1.47616168 87.82754442 2.84765625 89.98828125 C6.47197422 91.80044024 10.66870163 91.30139823 14.66015625 91.36328125 C16.01463867 91.41935547 16.01463867 91.41935547 17.39648438 91.4765625 C21.88911607 91.53598011 24.15703809 91.47092418 27.921875 88.83984375 C31.50256053 83.53781446 31.07985158 77.50565561 31.16015625 71.30078125 C31.20366211 70.16286133 31.20366211 70.16286133 31.24804688 69.00195312 C31.32181308 66.51822503 31.32181308 66.51822503 30.84765625 62.98828125 C28.08385746 60.26409289 26.05048205 59.60620864 22.22265625 59.58984375 C20.91554688 59.58404297 20.91554688 59.58404297 19.58203125 59.578125 C18.22851562 59.59552734 18.22851562 59.59552734 16.84765625 59.61328125 C15.9453125 59.60167969 15.04296875 59.59007812 14.11328125 59.578125 C13.241875 59.58199219 12.37046875 59.58585937 11.47265625 59.58984375 C10.68117188 59.59322754 9.8896875 59.59661133 9.07421875 59.60009766 C6.27722989 60.08773058 4.90689556 61.0577444 2.84765625 62.98828125 Z " fill="#274F37" transform="translate(68.15234375,17.01171875)"/>
<path d="M0 0 C11.21567355 4.81406696 20.9401815 11.96097582 29.56591797 20.55737305 C30.70287109 21.65952148 30.70287109 21.65952148 31.86279297 22.78393555 C43.13975654 34.41087385 49.48161134 49.07785092 53.56591797 64.55737305 C53.74380859 65.22833008 53.92169922 65.89928711 54.10498047 66.59057617 C56.76565424 77.30717884 56.86942679 88.20151319 56.94091797 99.18237305 C56.94895447 99.88332092 56.95699097 100.5842688 56.965271 101.30645752 C57.04396119 110.35053072 56.62754242 117.45466563 51.87841797 125.36987305 C46.7895302 130.1836858 40.56236104 130.93323401 33.80810547 130.94555664 C32.71372162 130.95344208 32.71372162 130.95344208 31.597229 130.96148682 C29.21156713 130.97457347 26.82658534 130.96598967 24.44091797 130.95581055 C22.76757684 130.95783455 21.09423657 130.9607487 19.42089844 130.96450806 C15.92423046 130.96891605 12.42779335 130.96254976 8.93115234 130.94848633 C4.465908 130.93139526 0.00120476 130.94124466 -4.46401978 130.95920372 C-7.91630068 130.97008295 -11.36845487 130.96657631 -14.82073975 130.95882034 C-16.46645167 130.95682976 -18.11217538 130.95923717 -19.75787354 130.966259 C-22.06431222 130.97394217 -24.36989409 130.96217492 -26.67626953 130.94555664 C-27.98450684 130.94316986 -29.29274414 130.94078308 -30.640625 130.93832397 C-36.20804394 130.37922619 -40.85359427 129.17945259 -44.80908203 125.11987305 C-49.46399133 117.77943916 -49.58345777 110.97047215 -49.5793457 102.45629883 C-49.58270432 101.45390167 -49.58606293 100.45150452 -49.58952332 99.41873169 C-49.59900259 96.11337028 -49.60097486 92.80805969 -49.60205078 89.50268555 C-49.60526528 87.19872009 -49.6086295 84.89475483 -49.61213684 82.59078979 C-49.61812041 77.76405362 -49.61997751 72.93733533 -49.61938477 68.1105957 C-49.61928315 61.93478294 -49.63293869 55.75908515 -49.65015697 49.58329964 C-49.66129093 44.82542395 -49.66330355 40.06757595 -49.66277504 35.30968857 C-49.66395292 33.03318765 -49.66836388 30.75668596 -49.67610741 28.48019791 C-49.68593605 25.29246273 -49.68301788 22.10497574 -49.67700195 18.91723633 C-49.68262146 17.982948 -49.68824097 17.04865967 -49.69403076 16.08605957 C-49.65949944 8.8628375 -49.11778535 1.41200219 -44.43408203 -4.44262695 C-30.95153111 -12.45822721 -13.40845921 -5.40990925 0 0 Z M-7.43408203 42.55737305 C-10.11399174 45.23728276 -9.68354192 47.28924803 -9.7119751 50.9324646 C-9.70792664 51.80641876 -9.70387817 52.68037292 -9.69970703 53.58081055 C-9.70162048 54.4785318 -9.70353394 55.37625305 -9.70550537 56.30117798 C-9.70686789 58.20265991 -9.70316679 60.10415112 -9.69482422 62.00561523 C-9.68415054 64.91370647 -9.6947043 67.82117643 -9.70751953 70.72924805 C-9.70619746 72.57560358 -9.70363408 74.42195872 -9.69970703 76.26831055 C-9.70375549 77.13821625 -9.70780396 78.00812195 -9.7119751 78.90438843 C-9.70567078 79.71848175 -9.69936646 80.53257507 -9.69287109 81.37133789 C-9.69048431 82.4415065 -9.69048431 82.4415065 -9.68804932 83.53329468 C-9.38871816 85.91891578 -8.6913024 87.51548855 -7.43408203 89.55737305 C-4.02396016 91.26243398 -0.25548384 90.82599482 3.50341797 90.86987305 C4.32777344 90.89887695 5.15212891 90.92788086 6.00146484 90.95776367 C10.74080445 91.12616447 10.74080445 91.12616447 14.60888672 88.7253418 C17.55041035 82.06189031 14.69125988 74.11051062 12.56591797 67.55737305 C9.11331274 58.90372789 3.58831307 47.38645879 -5.21142578 43.25268555 C-5.94490234 43.02323242 -6.67837891 42.7937793 -7.43408203 42.55737305 Z " fill="#274F37" transform="translate(345.43408203125,30.442626953125)"/>
<path d="M0 0 C3.66158608 0.4757146 7.23648807 1.13288892 10.83349609 1.96630859 C11.61732666 2.14564941 12.40115723 2.32499023 13.20874023 2.50976562 C28.6383848 6.18791805 42.25251484 12.74662941 54.14599609 23.27880859 C55.10505859 24.11927734 56.06412109 24.95974609 57.05224609 25.82568359 C75.79835244 42.97495562 84.41544485 66.36973882 86.14599609 91.27880859 C86.49521075 99.61727865 86.38237287 107.93914035 86.14599609 116.27880859 C86.13052734 117.06594238 86.11505859 117.85307617 86.09912109 118.6640625 C85.83470821 130.70311153 85.83470821 130.70311153 81.14599609 135.27880859 C78.43198856 135.77733126 76.34997531 135.95961255 73.64208984 135.90771484 C72.92239517 135.9101268 72.2027005 135.91253876 71.4611969 135.9150238 C69.94404575 135.91404669 68.42685836 135.90068484 66.90991211 135.87573242 C64.58698715 135.84136025 62.26785504 135.85508962 59.94482422 135.87451172 C58.46889657 135.86761453 56.99297872 135.85794328 55.51708984 135.84521484 C54.47638588 135.85265465 54.47638588 135.85265465 53.41465759 135.86024475 C50.23326177 135.78244096 48.55721334 135.6634394 46.18994141 133.44921875 C44.62863937 130.20320025 45.10515633 127.6496899 45.45849609 124.09130859 C45.57834988 122.64892451 45.69410486 121.20619507 45.80615234 119.76318359 C45.86561035 119.02132812 45.92506836 118.27947266 45.98632812 117.51513672 C47.46687314 96.77845113 45.06141869 74.70634602 31.14599609 58.27880859 C22.11879515 48.36870776 10.3444869 43.17069842 -2.61206055 40.69580078 C-5.43442749 40.11790952 -7.43977471 39.68393186 -9.53100586 37.63867188 C-12.11158357 33.03563365 -11.37198665 27.59144986 -11.35498047 22.43432617 C-11.35400819 20.35048155 -11.39564178 18.27032478 -11.43994141 16.18701172 C-11.44251953 14.86765625 -11.44509766 13.54830078 -11.44775391 12.18896484 C-11.45484375 10.98377197 -11.46193359 9.7785791 -11.46923828 8.53686523 C-10.25976079 2.13191399 -6.37167286 -0.42537521 0 0 Z " fill="#274F37" transform="translate(199.85400390625,25.72119140625)"/>
<path d="M0 0 C3.29037517 2.2146756 4.83450306 3.62405958 5.859375 7.48046875 C7.02311435 15.54518246 7.42684195 24.0085529 3.25 31.1875 C-1.2758943 35.67503926 -7.37291293 35.57960886 -13.375 35.6875 C-14.10348145 35.70619141 -14.83196289 35.72488281 -15.58251953 35.74414062 C-20.72675424 35.68322051 -23.68713147 34.57123801 -27.75 31.1875 C-31.86821675 26.84000352 -31.73439433 21.93818895 -31.75 16.1875 C-31.30917073 10.12130587 -29.48847427 6.14292793 -25.48046875 1.59765625 C-18.87705397 -3.78345602 -7.42870272 -3.55759892 0 0 Z " fill="#274F37" transform="translate(217.75,125.8125)"/>
</svg>
