<?xml version="1.0" encoding="UTF-8"?>
<svg id="Layer_1" xmlns="http://www.w3.org/2000/svg" version="1.1" viewBox="0 0 1051.87 743.24">
  <!-- Generator: Adobe Illustrator 30.1.0, SVG Export Plug-In . SVG Version: 2.1.1 Build 136)  -->
  <defs>
    <style>
      .st0 {
        fill: #9e1c35;
      }
    </style>
  </defs>
  <g>
    <path class="st0" d="M956.54,644.71c33.1-33.63,24.18-99.17,23.76-145.53-6.51-174.6-81.62-317.23-246.02-389.08-34.6-14.96-71-26.32-108.15-32.71-45.42-7.84-84.34,1.9-93.6,51.42-3.26,15.21-3.94,33.36-3.98,49.78.28,130.4-.52,261.99.33,393.05.6,38.65,10.16,78.96,51.31,90.21,15.26,4.75,33.9,6.07,50.84,6.34,77.56.27,155.21-.12,232.78-.1,31.41-.23,69.04-.59,92.39-23.02l.35-.34v-.02ZM799.77,491.94c-11.2,11.21-35.61,7.77-51.83,8.35-14.11-.41-30.67,1.91-41.94-8.03-10.74-11.04-8.75-26.59-9.12-44.12.15-36.35-.13-72.2-1.43-108.46.46-15.21-3.3-38.13,6.49-49.45,15.11-11.39,43.54,25.76,52.68,36.75,27.17,35.68,44.82,75.55,51.08,119.48,1.69,14.65,4.96,33.68-5.57,45.14l-.34.35h-.02Z"/>
    <path class="st0" d="M75.59,97.75c17.95-16.66,71.25-.65,94.07,3.45,40.35,9.15,79.41,24.63,114.95,45.95,97.13,57.54,166.32,158.99,186.05,270.07,13.15,70.8,9.6,148.23,4.29,219.8-1.99,25.55-18.51,31.97-41.59,31.16-30.22.03-60.53.12-90.7.1-5.6-.03-11.77-.41-16.89-1.71-16.1-3.49-17.95-18.68-16.39-34.34,1.06-11.95,3.55-28.59,4.34-40.62,9.73-111.16-11.49-236.29-113.74-298.9-87.02-56.15-134.49-13.41-133.16-76.85,0-29.11.21-58.25-.08-86.86.04-10.69.83-23.23,8.49-30.89l.35-.34v-.02Z"/>
  </g>
  <path class="st0" d="M192.38,653.42c-18.39,14.13-50.58,14.46-74.95,13.63-54.99-1.84-68.35-43.48-59.6-92.82,5.38-39.35,32.43-62.24,71.95-62.39,37.24-1.55,76.75,5.84,80.88,48.16,2.25,29.4,6.21,72.6-17.72,92.96l-.56.45h0Z"/>
</svg>