<?xml version="1.0" encoding="UTF-8"?>
<svg id="Layer_1" xmlns="http://www.w3.org/2000/svg" version="1.1" viewBox="0 0 1920 1080">
  <!-- Generator: Adobe Illustrator 30.1.0, SVG Export Plug-In . SVG Version: 2.1.1 Build 136)  -->
  <defs>
    <style>
      .st0 {
        fill: #1c1c1c;
      }
    </style>
  </defs>
  <g>
    <path class="st0" d="M1060.82,813.09c33.1-33.63,24.18-99.17,23.76-145.53-6.51-174.6-81.62-317.23-246.02-389.08-34.6-14.96-71-26.32-108.15-32.71-45.42-7.84-84.34,1.9-93.6,51.42-3.26,15.21-3.94,33.36-3.98,49.78.28,130.4-.52,261.99.33,393.05.6,38.65,10.16,78.96,51.31,90.21,15.26,4.75,33.9,6.07,50.84,6.34,77.56.27,155.21-.12,232.78-.1,31.41-.23,69.04-.59,92.39-23.02l.35-.34ZM904.06,660.32c-11.2,11.21-35.61,7.77-51.83,8.35-14.11-.41-30.67,1.91-41.94-8.03-10.74-11.04-8.75-26.59-9.12-44.12.15-36.35-.13-72.2-1.43-108.46.46-15.21-3.3-38.13,6.49-49.45,15.11-11.39,43.54,25.76,52.68,36.75,27.17,35.68,44.82,75.55,51.08,119.48,1.69,14.65,4.96,33.68-5.57,45.14l-.34.35Z"/>
    <path class="st0" d="M179.88,266.13c17.95-16.66,71.25-.65,94.07,3.45,40.35,9.15,79.41,24.63,114.95,45.95,97.13,57.54,166.32,158.99,186.05,270.07,13.15,70.8,9.6,148.23,4.29,219.8-1.99,25.55-18.51,31.97-41.59,31.16-30.22.03-60.53.12-90.7.1-5.6-.03-11.77-.41-16.89-1.71-16.1-3.49-17.95-18.68-16.39-34.34,1.06-11.95,3.55-28.59,4.34-40.62,9.73-111.16-11.49-236.29-113.74-298.9-87.02-56.15-134.49-13.41-133.16-76.85,0-29.11.21-58.25-.08-86.86.04-10.69.83-23.23,8.49-30.89l.35-.34Z"/>
  </g>
  <g>
    <path class="st0" d="M1311.46,720.3c9.05,8.83,13.58,21.64,13.58,38.42v70.08h-15.11v-68.32c0-12.99-3.25-22.92-9.74-29.79-6.5-6.85-15.37-10.28-26.61-10.28s-20.73,3.65-27.59,10.95c-6.86,7.3-10.29,18.03-10.29,32.18v65.26h-15.33v-119.56h15.33v20.36c3.79-7.3,9.27-12.88,16.42-16.75,7.15-3.86,15.25-5.8,24.31-5.8,14.3,0,25.98,4.42,35.03,13.25Z"/>
    <path class="st0" d="M1375.51,823c-8.98-5.04-16.06-12.19-21.24-21.46-5.18-9.27-7.77-20.11-7.77-32.52s2.63-23.24,7.88-32.51c5.26-9.28,12.41-16.42,21.46-21.46,9.05-5.04,19.19-7.56,30.44-7.56s21.42,2.52,30.55,7.56c9.12,5.04,16.28,12.19,21.46,21.46,5.18,9.27,7.77,20.11,7.77,32.51s-2.63,23.07-7.88,32.41c-5.26,9.34-12.48,16.53-21.68,21.57-9.2,5.04-19.42,7.55-30.66,7.55s-21.35-2.51-30.33-7.55ZM1427.73,811.83c6.71-3.57,12.15-8.98,16.31-16.21,4.16-7.22,6.24-16.1,6.24-26.61s-2.05-19.38-6.13-26.6c-4.09-7.23-9.49-12.63-16.2-16.21-6.72-3.57-14.01-5.37-21.9-5.37s-15.18,1.79-21.9,5.37c-6.72,3.57-12.08,8.97-16.09,16.21-4.02,7.22-6.02,16.09-6.02,26.6s2.01,19.38,6.02,26.61c4.01,7.22,9.34,12.63,15.98,16.21,6.64,3.57,13.91,5.37,21.79,5.37s15.18-1.79,21.9-5.37Z"/>
    <path class="st0" d="M1483.24,826.6c-2.12-2.19-3.18-4.89-3.18-8.1s1.06-5.88,3.18-7.99c2.11-2.12,4.78-3.18,7.99-3.18s5.66,1.06,7.77,3.18c2.11,2.11,3.17,4.78,3.17,7.99s-1.06,5.91-3.17,8.1c-2.12,2.19-4.71,3.29-7.77,3.29s-5.88-1.09-7.99-3.29Z"/>
    <path class="st0" d="M1576.85,681.65c-14.31,0-25.04,5.55-32.19,16.64-7.15,11.09-10.44,29.27-9.85,54.52,2.92-8.75,8.5-15.65,16.75-20.69,8.25-5.04,17.7-7.56,28.36-7.56,15.33,0,27.48,4.71,36.46,14.13,8.98,9.42,13.47,22.37,13.47,38.87,0,9.63-1.86,18.36-5.58,26.16-3.72,7.81-9.42,14.05-17.08,18.73-7.67,4.67-17.19,7.01-28.58,7.01-21.75,0-36.75-6.93-45-20.81-8.25-13.87-12.37-33.5-12.37-58.9,0-54.01,18.54-81.02,55.62-81.02,14.01,0,25.04,3.83,33.07,11.5,8.02,7.66,12.77,17.63,14.23,29.89h-14.23c-3.21-18.98-14.23-28.47-33.07-28.47ZM1557.58,741.86c-6.13,2.78-11.13,6.98-15,12.6-3.87,5.62-5.8,12.51-5.8,20.69,0,11.82,3.5,21.68,10.51,29.57,7.01,7.88,17.22,11.82,30.66,11.82,11.24,0,20.22-3.43,26.93-10.29,6.71-6.86,10.07-16.21,10.07-28.03,0-12.7-3.28-22.63-9.85-29.78-6.57-7.16-15.91-10.73-28.03-10.73-6.86,0-13.36,1.39-19.49,4.15Z"/>
    <path class="st0" d="M1750.93,684.93h-80.14v56.06c3.65-5.1,8.98-9.3,15.99-12.59,7.01-3.28,14.59-4.93,22.77-4.93,11.97,0,21.75,2.45,29.34,7.34,7.59,4.89,13.06,11.24,16.42,19.05,3.36,7.81,5.04,16.17,5.04,25.07,0,10.23-1.94,19.46-5.8,27.7-3.87,8.25-9.78,14.78-17.74,19.6-7.96,4.81-17.85,7.22-29.67,7.22-15.04,0-27.23-3.9-36.57-11.71-9.34-7.81-15.04-18.36-17.08-31.64h15.11c1.89,9.64,6.27,17.08,13.14,22.34,6.86,5.26,15.33,7.89,25.4,7.89,12.7,0,22.3-3.76,28.79-11.28,6.49-7.52,9.74-17.48,9.74-29.9s-3.28-21.56-9.85-28.36c-6.57-6.79-15.98-10.18-28.25-10.18-8.47,0-15.91,1.97-22.34,5.91-6.42,3.94-11.17,9.27-14.23,15.98h-14.45v-86.93h94.38v13.35Z"/>
  </g>
  <path class="st0" d="M296.67,821.8c-18.39,14.13-50.58,14.46-74.95,13.63-54.99-1.84-68.35-43.48-59.6-92.82,5.38-39.35,32.43-62.24,71.95-62.39,37.24-1.55,76.75,5.84,80.88,48.16,2.25,29.4,6.21,72.6-17.72,92.96l-.56.45Z"/>
</svg>