<?xml version="1.0" encoding="UTF-8"?>
<svg id="a" xmlns="http://www.w3.org/2000/svg" version="1.1" viewBox="0 0 2509.51 2665.69">
  <!-- Generator: Adobe Illustrator 30.1.0, SVG Export Plug-In . SVG Version: 2.1.1 Build 136)  -->
  <defs>
    <style>
      .st0 {
        fill: #b4203c;
      }
    </style>
  </defs>
  <path class="st0" d="M2051.88,2261.27c47.6-82.23-2.79-205.52-26.94-295.69-100.58-337.12-318.83-577.38-675.53-634.71-74.99-11.74-151.67-15.57-227.32-9.34-92.5,7.59-163.47,46.16-156.59,147.36,1.3,31.29,9.11,67.03,17.3,99.07,66.19,254.08,130.89,511.04,198.51,766.13,20.63,75.06,59.56,148.82,145.44,150.04,32.15,1.58,69.14-5.22,102.32-13.24,151.35-38.53,302.55-78.37,453.77-117.39,61.12-16.26,134.3-35.91,168.53-91.39l.51-.84h0ZM1669.34,2042.34c-16.2,27.49-65.52,33.07-96.85,42.36-27.72,6.31-58.83,19.16-85.81,5.46-26.49-16.12-30.44-47.43-39.99-81.43-18.01-70.95-36.6-140.7-57.39-210.74-6.75-29.89-25.63-72.67-12.25-99.67,23.72-29.82,97.86,28.29,121.2,45.13,70.94,55.89,125.43,124.74,159.73,207.23,10.67,27.71,26.63,63.16,11.86,90.81l-.49.85h0Z"/>
  <path class="st0" d="M665.08,1386.55c94.75-7.1,168.11-118.26,228.93-189.08,221.58-273.26,296.81-589,142.88-915.85-32.62-68.54-72.72-134.01-120.55-192.94-58.46-72.09-130.35-108.92-210.02-46.14-25.1,18.73-50.2,45.34-72.03,70.18C461.86,310.72,286.22,509.11,113.76,708.87c-50.33,59.38-89.26,133.14-41.81,204.73,16.83,27.44,43.32,54.14,68.66,77,117.21,103.22,235.41,205.57,352.95,308.41,47.9,41.29,105.43,90.62,170.54,87.58l.98-.05h0ZM630,947.18c-31.84,2.14-64.27-35.44-89.62-56.06-20.85-19.33-49.01-37.76-52.92-67.77-1.64-30.96,21.98-51.9,44.67-78.96,48.42-54.9,95.51-109.6,141.61-166.29,20.87-22.44,45.53-62.17,75.38-66.35,38,2.76,31.86,96.76,31.12,125.52-6.12,90.1-32.22,173.93-80.97,248.8-16.85,24.44-37.12,57.62-68.29,61.03l-.98.07h0Z"/>
  <path class="st0" d="M125.05,1380.57c40.02-37.15,158.86-1.45,209.75,7.69,89.97,20.4,177.06,54.93,256.3,102.45,216.56,128.3,370.84,354.51,414.84,602.18,29.32,157.85,21.39,330.51,9.57,490.09-4.43,56.97-41.27,71.29-92.73,69.47-67.37.07-134.97.27-202.25.22-12.48-.06-26.24-.92-37.65-3.82-35.91-7.77-40.03-41.65-36.54-76.56,2.36-26.65,7.91-63.75,9.68-90.58,21.69-247.85-25.63-526.86-253.6-666.47-194.02-125.19-299.87-29.9-296.91-171.36-.02-64.9.46-129.87-.17-193.67.09-23.83,1.84-51.8,18.92-68.87l.78-.76h.01Z"/>
  <path class="st0" d="M1186.93,1101.1c-37.15-40.02-1.45-158.86,7.69-209.75,20.4-89.97,54.93-177.06,102.45-256.3,128.3-216.56,354.51-370.84,602.18-414.84,157.85-29.32,330.51-21.39,490.09-9.57,56.97,4.43,71.29,41.27,69.47,92.73.07,67.37.27,134.97.22,202.25-.06,12.48-.92,26.24-3.82,37.65-7.77,35.91-41.65,40.03-76.56,36.54-26.65-2.36-63.75-7.91-90.58-9.68-247.85-21.69-526.86,25.63-666.47,253.6-125.19,194.02-29.9,299.87-171.36,296.91-64.9.02-129.87-.46-193.67.17-23.83-.09-51.8-1.84-68.87-18.92l-.76-.78h0Z"/>
</svg>