<?xml version="1.0" encoding="UTF-8"?>
<svg id="Layer_1" xmlns="http://www.w3.org/2000/svg" version="1.1" xmlns:xlink="http://www.w3.org/1999/xlink" viewBox="0 0 553.77 193.61">
  <!-- Generator: Adobe Illustrator 30.1.0, SVG Export Plug-In . SVG Version: 2.1.1 Build 136)  -->
  <defs>
    <style>
      .st0 {
        fill: #fff;
      }

      .st1 {
        fill: #20492e;
        isolation: isolate;
      }

      .st2 {
        fill: #36a35b;
      }

      .st3 {
        fill: #e8e8e8;
        filter: url(#drop-shadow-1);
      }
    </style>
    <filter id="drop-shadow-1" x="20.24" y="14.51" width="453.23" height="160.5" filterUnits="userSpaceOnUse">
      <feOffset dx="2" dy="3"/>
      <feGaussianBlur result="blur" stdDeviation="0"/>
      <feFlood flood-color="#4d7c50" flood-opacity=".49"/>
      <feComposite in2="blur" operator="in"/>
      <feComposite in="SourceGraphic"/>
    </filter>
  </defs>
  <path class="st3" d="M66.88,165.07c2.3.22,4.59.44,6.88.65,25.27,2.28,52.08,9.23,77.41,4.91,6.53-1.12,12.87-3.12,19.38-4.32,11.3-2.08,23.33-1.33,34.78-1.47,12.39-.16,24.79-.22,37.18-.23,24.81-.02,49.62.17,74.43.23,14.16.03,28.33.09,42.49-.08,33.17-.41,66.5.83,99.61-.5,10.22-1.51,12.86-4.66,12.33-14.01-.47-23.52.68-79.16-.31-101.74-1.16-6.19-5.96-8.49-12.81-9.98-3.79-.71-7.97-.7-11.91-.71-58.77.02-117.63-.04-176.45.03-6.04.07-12.16-1.04-17.1-4.38-4.83-3.04-9.15-7.64-14.58-10.49-14.42-7.13-31.14-7.92-46.96-8.42-28.54-.58-58.24,7.54-83.74,19.91-4.87,2.28-8.33,3.44-13.69,3.64-16,.24-44.82-.02-61.54.11-9.69.2-12.35,2.05-12,12.29.14,22.15-.19,80.62.08,100.94.09,3.97,1.95,7.24,5.65,8.97,6.75,3.34,14.59,3.21,21.92,3.36,6.3.13,12.65.7,18.96,1.31Z"/>
  <path class="st1" d="M60.73,110.56c-2.79,15.52-3.83,29.86-3.11,43.41h-13c-7.17,0-12.99-5.81-12.99-12.99V62.66c0-7.17,5.82-12.99,12.99-12.99h49.1c-7.13,6.53-13.35,14.11-18.54,22.64-7.11,11.67-11.97,24.54-14.45,38.25Z"/>
  <path class="st1" d="M459.41,57.82v92.22c0,2.17-1.76,3.93-3.93,3.93H179.36c6.69-5.3,12.65-12.03,17.88-20.17,7.83-12.2,13.63-23.56,19.25-34.54,9.36-18.32,17.47-34.17,32.61-49.59h202.16c4.5,0,8.15,3.65,8.15,8.15h0Z"/>
  <g>
    <path class="st0" d="M265.93,97.98l-8.7,27.85-8.75-27.85h-11.49l13.35,38.57h13.73l13.29-38.57s-11.43,0-11.43,0Z"/>
    <path class="st0" d="M305.36,106.57v-8.59h-24.67v38.57h24.67v-8.59h-13.94v-6.95h12.31v-8.15h-12.31v-6.29h13.94Z"/>
    <path class="st0" d="M327.25,114.56v7.72h10.78c-1.59,3.33-4.32,5.08-8.04,5.08-6.35,0-9.74-3.56-9.74-10.17,0-5.91,3.28-9.68,8.69-9.68,2.96,0,5.15,1.15,6.35,3.17h11.54c-1.53-8.04-8.2-13.08-17.94-13.08-11.81,0-19.53,8.1-19.53,19.58s7.77,19.64,19.58,19.64c10.07,0,16.03-6.24,18.33-11.87v-10.4h-20.02Z"/>
    <path class="st0" d="M368.66,114.56v7.72h10.78c-1.59,3.33-4.32,5.08-8.04,5.08-6.35,0-9.74-3.56-9.74-10.17,0-5.91,3.28-9.68,8.69-9.68,2.96,0,5.15,1.15,6.35,3.17h11.54c-1.53-8.04-8.2-13.08-17.94-13.08-11.81,0-19.53,8.1-19.53,19.58s7.77,19.64,19.58,19.64c10.07,0,16.03-6.24,18.33-11.87v-10.4h-20.02Z"/>
    <path class="st0" d="M393.49,97.98v38.57h10.72v-38.57s-10.72,0-10.72,0Z"/>
    <path class="st0" d="M435.01,106.57v-8.59h-24.67v38.57h24.67v-8.59h-13.95v-6.95h12.31v-8.15h-12.31v-6.29h13.95Z"/>
  </g>
  <path class="st2" d="M235.43,36.85c-4.07-2.18-8.54-3.35-12.97-4.35-9.26-2.09-18.65-3.47-28.09-4.13-4.48-.32-9.02-.49-13.57-.49-25.81,0-52.23,5.5-73.66,21.12-.3.22-.6.44-.89.67-19.73,14.74-33.12,37.23-37.64,62.31-2.51,13.92-3.8,27.86-3,41.99.28,5.1.84,10.22,1.71,15.38.11.67.65,1,1.19,1s1.13-.36,1.21-1.07c.6-5.17,1.23-10.27,2-15.31,1.71-11.33,4.06-22.39,8.09-33.37,16.5-44.99,50.82-64.15,90.16-70.93,9.38-1.62,19.05-2.54,28.82-2.93h.06c1.46,0,1.66,2.24.16,2.41-.24.03-.49.04-.74.04-1.06,0-2.17-.2-3.33-.2-.33,0-.66,0-.99.05-1.55.18-3.08.39-4.6.63-52.23,7.99-87.09,44.2-103.52,98.21-.18.6.12,1.24.7,1.48,4,1.68,8.03,3.23,12.06,4.61,12.25,4.18,24.58,6.8,36.4,6.8,10.42,0,20.45-2.03,29.69-6.8,9.6-4.95,18.36-12.85,25.83-24.49,19.11-29.79,26.42-55.58,47.67-79.81,1.81-2.06,3.72-4.12,5.75-6.16,1.22-1.23-7.44-6.09-8.5-6.66h0Z"/>
</svg>