<?xml version="1.0" encoding="UTF-8"?>
<svg id="Layer_1" xmlns="http://www.w3.org/2000/svg" version="1.1" xmlns:xlink="http://www.w3.org/1999/xlink" viewBox="0 0 553.77 193.61">
  <!-- Generator: Adobe Illustrator 30.1.0, SVG Export Plug-In . SVG Version: 2.1.1 Build 136)  -->
  <defs>
    <style>
      .st0 {
        fill: #fff;
      }

      .st1 {
        fill: #20492e;
        isolation: isolate;
      }

      .st2 {
        fill: url(#linear-gradient);
      }

      .st3 {
        fill: #e8e8e8;
      }
    </style>
    <linearGradient id="linear-gradient" x1="74.32" y1="152.99" x2="231.07" y2="23.85" gradientUnits="userSpaceOnUse">
      <stop offset="0" stop-color="#146b36"/>
      <stop offset="1" stop-color="#31b550"/>
    </linearGradient>
  </defs>
  <path class="st3" d="M65.32,166.78h13.93c-.13.41-.27.82-.39,1.23-.19.63.13,1.3.73,1.55,4.2,1.76,8.43.63,12.65,2.08,12.85,4.39,25.79,7.13,38.19,7.13,10.93,0,21.46-2.13,31.15-7.13,3.96-2.04,7.78-1.08,11.44-4.13h351.76c4.78,0,8.66-3.88,8.66-8.66V41.37c0-4.78-3.88-8.66-8.66-8.66H247.82c.55-.57,1.09-1.15,1.65-1.72,1.26-1.27-7.67-6.28-8.77-6.87-4.2-2.25-8.81-3.46-13.38-4.49-9.55-2.16-19.23-3.58-28.97-4.26-4.62-.33-9.3-.51-14-.51-24.32,0-62.64,4.74-83.61,17.84H23.87c-4.78,0-8.66,3.88-8.66,8.66v113.99c0,4.78,3.88,11.42,8.66,11.42h41.45Z"/>
  <path class="st1" d="M60.73,110.56c-2.79,15.52-3.83,29.86-3.11,43.41h-13c-7.17,0-12.99-5.81-12.99-12.99V62.66c0-7.17,5.82-12.99,12.99-12.99h49.1c-7.13,6.53-13.35,14.11-18.54,22.64-7.11,11.67-11.97,24.54-14.45,38.25Z"/>
  <path class="st1" d="M521.48,57.82v83.16c0,7.18-5.81,12.99-12.99,12.99H179.36c6.69-5.3,12.65-12.03,17.88-20.17,7.83-12.2,13.63-23.56,19.25-34.54,9.36-18.32,17.47-34.17,32.61-49.59h264.23c4.5,0,8.15,3.65,8.15,8.15Z"/>
  <g>
    <path class="st0" d="M279.36,80.51l-10.94,35.01-11-35.01h-14.44l16.78,48.49h17.26l16.71-48.49h-14.37Z"/>
    <path class="st0" d="M328.94,91.31v-10.8h-31.01v48.49h31.01v-10.8h-17.53v-8.74h15.47v-10.24h-15.47v-7.91h17.53Z"/>
    <path class="st0" d="M356.45,101.35v9.7h13.55c-2,4.19-5.43,6.39-10.11,6.39-7.98,0-12.24-4.47-12.24-12.79,0-7.43,4.12-12.17,10.93-12.17,3.72,0,6.47,1.44,7.98,3.99h14.51c-1.92-10.11-10.31-16.44-22.56-16.44-14.85,0-24.55,10.18-24.55,24.62s9.77,24.69,24.62,24.69c12.66,0,20.15-7.84,23.04-14.92v-13.07h-25.17Z"/>
    <path class="st0" d="M408.51,101.35v9.7h13.55c-2,4.19-5.43,6.39-10.11,6.39-7.98,0-12.24-4.47-12.24-12.79,0-7.43,4.12-12.17,10.93-12.17,3.72,0,6.47,1.44,7.98,3.99h14.51c-1.92-10.11-10.31-16.44-22.56-16.44-14.85,0-24.55,10.18-24.55,24.62s9.77,24.69,24.62,24.69c12.66,0,20.15-7.84,23.04-14.92v-13.07h-25.17Z"/>
    <path class="st0" d="M439.73,80.51v48.49h13.48v-48.49h-13.48Z"/>
    <path class="st0" d="M491.93,91.31v-10.8h-31.02v48.49h31.02v-10.8h-17.54v-8.74h15.48v-10.24h-15.48v-7.91h17.54Z"/>
  </g>
  <path class="st2" d="M235.43,36.85c-4.07-2.18-8.54-3.35-12.97-4.35-9.26-2.09-18.65-3.47-28.09-4.13-4.48-.32-9.02-.49-13.57-.49-25.81,0-52.23,5.5-73.66,21.12-.3.22-.6.44-.89.67-19.73,14.74-33.12,37.23-37.64,62.31-2.51,13.92-3.8,27.86-3,41.99.28,5.1.84,10.22,1.71,15.38.11.67.65,1,1.19,1s1.13-.36,1.21-1.07c.6-5.17,1.23-10.27,2-15.31,1.71-11.33,4.06-22.39,8.09-33.37,16.5-44.99,50.82-64.15,90.16-70.93,9.38-1.62,19.05-2.54,28.82-2.93h.06c1.46,0,1.66,2.24.16,2.41-.24.03-.49.04-.74.04-1.06,0-2.17-.2-3.33-.2-.33,0-.66.01-.99.05-1.55.18-3.08.39-4.6.63-52.23,7.99-87.09,44.2-103.52,98.21-.18.6.12,1.24.7,1.48,4,1.68,8.03,3.23,12.06,4.61,12.25,4.18,24.58,6.8,36.4,6.8,10.42,0,20.45-2.03,29.69-6.8,9.6-4.95,18.36-12.85,25.83-24.49,19.11-29.79,26.42-55.58,47.67-79.81,1.81-2.06,3.72-4.12,5.75-6.16,1.22-1.23-7.44-6.09-8.5-6.66Z"/>
</svg>